<svg xmlns="http://www.w3.org/2000/svg" version="1.1" viewBox="0 0 180 256">
  <path
    d="M179.3174438,138.9800415c0-.0644531,0-.1289062-.0214844-.2148438-.0644531-.3652954-.1933594-.7305908-.3652954-1.0529175,0-.0214844,0-.0644531-.0214844-.0859375l-29.2657471-55.6526489v-17.4472656h-9.1749268l-18.8015747-35.7536621v-14.0324707h-7.3791504l-6.5875854-12.5270996c-.1289062-.2578735-.3008423-.4727173-.4727173-.6876221-.0429688-.0429688-.0859375-.0859375-.1074219-.1289062-.1934204-.2148438-.4082642-.4082642-.6446533-.5801392-.0644531-.0429688-.1074219-.0859375-.1503906-.1289062-.2793579-.171936-.5586548-.3223267-.8809814-.4512329-.0214844,0-.0429688-.0215454-.0644531-.0430298-.0429688,0-.0859375,0-.1289062-.0214844-.2793579-.0859375-.5802002-.1503906-.8809814-.171875h-.1289673c-.3223267,0-.6445923,0-.9669189.0644531-.0859375,0-.1503906.0429688-.2363892.0644531-.1074219.0214844-.2148438.0429688-.3222656.0645142-.171936.0644531-.3223267.1289062-.4942017.2148438-.0430298,0-.0859985.0429688-.1289673.0644531-.3007812.1504517-.5586548.343811-.8165283.5586548-.0214844.0214844-.0644531.0430298-.0859375.0645142L17.3889771,79.1807861c-.0645142.0644531-.1289673.1504517-.1934204.2149048-.0644531.0859375-.1503906.1503906-.2148438.2363281-.0430298.0644531-.0859985.1289673-.1504517.1934204-.0214844.0429688-.0644531.0859375-.0859375.1289062s-.0429688.0644531-.0859375.1074219c-.0214844.0429688-.0644531.1074219-.0859375.1504517-.0644531.1289062-.1074829.2363281-.171936.3652344-.0429688.0859985-.0859375.1504517-.1074219.2363892,0,.0429688-.0214844.0644531-.0429688.1074219,0,.0429688,0,.0859375-.0214844.1289062-.0214844.1074829-.0644531.2149048-.0859375.3008423,0,.0429688-.0214844.0859375-.0429688.1503906L.6932983,172.5217285v.1504517c0,.0859375-.0429688.171875-.0429688.2578125,0,.2578735,0,.4942627.0214844.7305908v.1289062c.0429688.3652954.1503906.7091064.3008423,1.0528564.0429688.0859985.0859375.171936.1289062.2578735.1289062.2578735.2792969.4942017.4512329.7091064.0644531.0859375.1074219.1503906.1933594.2363281.0429688.0429688.0644531.0859375.1074829.1289062l78.9229126,78.6221313c.1289673.1289673.2793579.2363892.4082642.343811.0429688.0430298.0859375.0859375.1503906.1289062h.0214844c.3223267.2149048.6446533.3652954,1.0099487.4942017.0859375.0214844.1503906.0430298.2363281.0645142.3652954.1074219.7305908.171875,1.0958862.171875.3652344,0,.7520142-.0644531,1.1173096-.171875.0429688,0,.0859375,0,.1504517-.0214844l60.5727539-19.1237183c1.2677612-.4082642,2.2776489-1.3967285,2.6859131-2.6644287l30.8773193-93.1690674c.0859375-.2363892.1289062-.4942017.171875-.7305908v-.0214844l.0429688.0215454c.0429688-.3867798.0429688-.7520752,0-1.138855ZM112.321228,41.6639404h9.2010498l11.2088623,22.8624878h-16.1343994l-4.2755127-22.8624878ZM108.3222656,14.7402954h-1.0360718l-.638916-3.4164429,1.6749878,3.4164429ZM102.7796021,6.1239014l1.1583862,8.616394h-9.1946411v26.923645h12.81427l5.6647949,42.1365356v17.1469727h2.3052368l1.1757202,8.7453613-12.0758667-3.9966431-49.4734497-16.3303833h31.6174927v-33.6062012h-33.6062012v32.9497681l-27.890564-9.2062378L102.7796021,6.1239014ZM20.3047485,106.8349609l3.4229736,19.5535278,4.2114868,24.130249-11.4527588,7.2626953,3.8182983-50.9464722ZM33.246582,132.619812l-6.102356-35.024353,42.5018921,53.5249023-33.6491699-2.6644287v-.0214844l-2.7503662-15.8146362ZM19.3657837,165.4309082l14.3320312-8.8527832,41.1697388,3.2661133,4.1685181,66.4172974-59.6702881-60.8306274ZM79.2939453,149.8741455L27.1226807,85.6270142l86.8088379,31.8657227v.0214844l-15.7717285,14.7402954-18.8658447,17.6196289ZM141.0485229,209.4155273l-53.4174805,16.8675537-4.5338135-68.5661011,39.6226196-37.022644,41.3630981,16.4163208-23.0344238,72.3048706ZM141.8005371,120.0926514h-.0214233l-16.1370239-7.1982422-2.2341919-11.9469604h26.2355347v-1.9255371l14.9552002,30.5037231-22.7980957-9.4329834Z"
  />
</svg>
