<svg xmlns="http://www.w3.org/2000/svg" version="1.1" viewBox="0 0 180 256">
  <path
    d="M150.235648,87.9426628v-27.2597631h-14.4679227l-10.4869043-19.7593944V9.3758266h-16.7431431L103.5817766.03861l-9.880504,9.3372165h-.4055221v.3828173L17.5850994,81.3036018,2,174.6657062l79.9724916,81.3342938,62.9329698-19.6802189,33.7864924-93.3225479.3080462-.8573082-28.764352-54.1972622ZM150.0487214,96.4410684l22.297049,42.0132251-53.4311342-20.3638033-1.7214781-14.0790638h32.8555633v-7.5703581ZM146.0559738,64.6926074v15.682072l-8.3228645-15.682072h8.3228645ZM146.0559738,88.9177032v11.0388974h-29.3585292l-2.9892208-24.4492495v-10.8147437h19.4911126l12.8566375,24.2250958ZM131.0474578,60.6377816h-19.1572004l-2.2137964-18.1061438h11.7619315l9.6090653,18.1061438ZM121.101085,13.3855342v19.9697377l-10.5984553-19.9697377h10.5984553ZM119.2860201,38.4767494h-10.1047789l-3.0247789-24.7402681,13.1295578,24.7402681ZM101.3653257,7.4509919l.2290901,1.8797165h-2.2186115l1.9895215-1.8797165ZM97.1015715,13.3855342h4.98899l3.0667571,25.0912152h-8.0557471V13.3855342ZM50.1007007,55.8944346v34.814061h36.5666246v-38.2793508h-32.8994552L93.1088239,15.2528151v27.2788227h12.5436527l4.0629994,33.2407359v28.2390528h3.4517222l1.5236248,12.4694316-5.9657865-2.273657v-3.8957249h-10.2217006l-75.5273668-28.7849705,27.1247315-25.6320711ZM54.0934483,86.6536697v-30.1696991h28.5811293v30.1696991h-28.5811293ZM113.4489463,120.3399009l-4.7239097,4.4092724v-6.2095008l4.7239097,1.8002284ZM24.831469,86.566058l62.3047161,23.7454182h-43.4662416l-18.8384745-23.7454182ZM73.0177312,153.7667962l-37.9562277-2.6042947v-36.7961995h6.697319l31.2589087,39.4004942ZM38.5414993,110.3114761h-7.4728052v28.9664431l-7.6950429-48.0850592,15.1678481,19.1186161ZM35.0615035,155.2265135l41.063358,2.8191373,1.2307031,27.8484867h-42.2940611v-30.667624ZM46.8872666,114.366302h50.8878704l6.9571519,2.6516v11.4578967l-26.8030423,25.0172888-31.04198-39.1267855ZM19.556348,92.5970857l9.5140587,59.4536568-22.3058151,17.17016,12.7917564-76.6238168ZM6.983434,174.1389732l24.0852602-18.536079v34.3460691h46.4657718l2.5890695,58.5802886L6.983434,174.1389732ZM80.0737789,156.9974964l24.6585101-23.0130911v51.9097323h-23.3820013l-1.2765088-28.8966411ZM141.6537531,232.9880337l-57.4297465,17.9621655-2.6948176-61.0012359h27.1958475v-59.690996l8.9155601-8.3204949,56.4310348,21.5071308-32.4178784,89.5434305Z"
    style="fill: #010101"
  />
  <metadata>
    <sfw xmlns="http://ns.adobe.com/SaveForWeb/1.0/">
      <slices />
      <sliceSourceBounds
        x="2"
        y="-256"
        width="177"
        height="255.96"
        bottomLeftOrigin="true"
      />
    </sfw>
  </metadata>
</svg>
