<svg xmlns="http://www.w3.org/2000/svg" version="1.1" viewBox="0 0 175 250">
  <path
    d="M146.7454834,85.9008179v-26.6248779h-14.3044434l-10.3684082-19.2991943V9.1638184h-16.5539551L100.6187744.0440674l-9.7688599,9.119751h-.4009399v.3739014L15.593811,79.4163818.1848145,170.6040649l79.0688477,79.4400024,62.2218628-19.2218628,33.4047241-91.1490479.3045654-.8373413-28.4393311-52.9349976ZM146.5606689,94.2012939l22.045105,41.034729-52.8273926-19.8895264-1.7020264-13.7511597h32.484314v-7.394043ZM142.6130371,63.1922607v15.3168335l-8.2288208-15.3168335h8.2288208ZM142.6130371,86.8531494v10.7817993h-29.0267944l-2.9554443-23.8798218v-10.5628662h19.270874l12.7113647,23.6608887ZM127.7741089,59.2318726h-18.9407349l-2.1887817-17.6844482h11.6290283l9.5004883,17.6844482ZM117.9401245,13.0801392v19.5046387l-10.4786987-19.5046387h10.4786987ZM116.1455688,37.5869751h-9.9906006l-2.9906006-24.1640625,12.9812012,24.1640625ZM98.4273682,7.2838135l.2265015,1.8359375h-2.1935425l1.967041-1.8359375ZM94.211792,13.0801392h4.9326172l3.0321045,24.5068359h-7.9647217V13.0801392ZM47.7420044,54.598999v34.0032349h36.1534424v-37.3878174h-32.52771L90.2641602,14.9039307v26.6434937h12.4019165l4.0170898,32.4665527v27.5813599h3.4127197l1.5064087,12.1790161-5.8983765-2.2207031v-3.8049927h-10.1062012l-74.6739502-28.114563,26.8182373-25.0350952ZM51.6896362,84.6418457v-29.467041h28.2581787v29.467041h-28.2581787ZM110.3744507,117.5435181l-4.6705322,4.3065796v-6.0648804l4.6705322,1.7583008ZM22.7583008,84.5562744l61.600708,23.1923828h-42.9750977l-18.6256104-23.1923828ZM70.4000854,150.1918945l-37.5273438-2.5436401v-35.939209h6.6216431l30.9057007,38.4828491ZM36.3134155,107.7486572h-7.3883667v28.2918091l-7.6080933-46.9651489,14.99646,18.6733398ZM32.8727417,151.6176147l40.5993652,2.753479,1.2167969,27.1998901h-41.8161621v-29.9533691ZM44.5648804,111.7090454h50.3128662l6.87854,2.5898438v11.19104l-26.5001831,24.4346313-30.6912231-38.2155151ZM17.5427856,90.4468384l9.4065552,58.0689697-22.053772,16.7702637,12.6472168-74.8392334ZM5.1119385,170.0895996l23.8131104-18.1043701v33.5461426h45.9407349l2.5598145,57.2159424L5.1119385,170.0895996ZM77.3764038,153.3473511l24.3798828-22.4771118v50.7007446h-23.1177979l-1.262085-28.2236328ZM138.2605591,227.5680542l-56.7808228,17.5438232-2.6643677-59.5805054h26.8885498v-58.3007812l8.8148193-8.126709,55.793396,21.0062256-32.0515747,87.4579468Z"
  />
</svg>
