<svg xmlns="http://www.w3.org/2000/svg" version="1.1" viewBox="0 0 400 140">
  <rect x="103.2672119" y="120.713028" width="280.1954346" height="6.4283752" />
  <rect x="393.6382751" y="120.7508469" width="6.3527222" height="6.3527298" />
  <rect x="385.3516846" y="120.7508469" width="6.3527222" height="6.3527298" />
  <g>
    <path
      d="M102.5560455,109.7789993l26.1686859-62.1592941h14.580658l25.8615112,62.1592941h-14.8108978l-5.9088593-14.1201706h-25.5548859l-5.9857941,14.1201706h-14.3504181ZM127.4201889,83.6872406h17.1897202l-8.364624-20.5659103h-.3840942l-8.4410019,20.5659103Z"
    />
    <path
      d="M176.2258911,109.7789993v-32.2308655h-6.9067688v-13.8135376h14.120163v7.6744308h3.2234039c1.7384796-2.7109146,3.9255219-4.8085709,6.5611267-6.2929688,2.6345367-1.4833107,5.9213257-2.2255096,9.8614655-2.2255096,3.7337341,0,6.9181519.627346,9.5537567,1.8798752,2.6345367,1.2546921,4.7701111,3.0836411,6.4078217,5.4879227h.3071747c3.631897-4.9115067,8.8505707-7.3677979,15.6549377-7.3677979,6.0876465,0,10.9092102,1.7650223,14.4658051,5.2950592,3.5555115,3.5300446,5.3335266,8.2627716,5.3335266,14.1970978v27.396286h-14.120163v-24.6333618c0-6.4468231-3.0197144-9.6691513-9.0553436-9.6691513-6.037796,0-9.0558929,3.2223282-9.0558929,9.6691513v24.6333618h-14.120163v-24.6333618c0-6.4468231-3.0695496-9.6691513-9.2086639-9.6691513-2.9677124,0-5.1932068.7931213-6.6765289,2.3782806-1.4843903,1.5862427-2.2255096,4.0176163-2.2255096,7.2908707v24.6333618h-14.120163l.0000153.0000076Z"
    />
    <path
      d="M290.9522705,110.6999741c-3.8886719,0-7.2269287-.7551956-10.014801-2.2634277-2.7889404-1.5082321-5.0014343-3.6188889-6.6386108-6.3308868h-3.2223206v7.6733475h-14.120697v-13.8135376h6.9067688v-50.6481934h14.1201782v24.3267365h.3066406c1.3305359-2.1485825,3.1583862-3.8236694,5.4868469-5.0263519,2.3273621-1.2016029,5.129303-1.8040276,8.4036255-1.8040276,4.4510193,0,8.2367554.9979019,11.3572388,2.9937096,3.1204834,1.9947205,5.4987488,4.7955704,7.1370239,8.4025421,1.6371765,3.6069717,2.4562988,7.7892761,2.4562988,12.5469284,0,4.7078094-.8440552,8.8641129-2.5332336,12.4710846-1.6880798,3.6058884-4.1703796,6.4208221-7.443634,8.4415436-3.2743225,2.0207291-7.3417969,3.0305481-12.2012939,3.0305481l-.0000305-.0000153ZM288.2662659,98.4217529c3.631897,0,6.3309021-1.0477448,8.0959167-3.1464844,1.7650146-2.0976562,2.6480713-4.9364243,2.6480713-8.5184784,0-3.5798798-.8830566-6.4197388-2.6480713-8.5184784-1.7650146-2.0965729-4.4640198-3.145401-8.0959167-3.145401-3.1724854,0-5.6786194.8819656-7.5205688,2.6469879s-2.7629089,4.2093964-2.7629089,7.3287888v3.3761826c0,3.1215591.9209595,5.5637741,2.7629395,7.3287888,1.8419495,1.7650223,4.3480835,2.6480713,7.5205688,2.6480713l-.0000305.0000229Z"
    />
    <path
      d="M340.4497681,110.6999741c-5.0653687,0-9.4654541-.9838181-13.1991882-2.9547043-3.7348328-1.9687195-6.6126099-4.7576447-8.6333313-8.3646164-2.0218201-3.6069717-3.0316467-7.8651276-3.0316467-12.7766266s.9848938-9.1447372,2.9547119-12.7007828c1.9687195-3.5549622,4.7825623-6.2929688,8.4415588-8.2118454,3.6567993-1.9177933,7.9680481-2.8777771,12.930481-2.8777771,4.911499,0,9.1328125.9339752,12.6628723,2.8019333,3.5300293,1.8679504,6.2279663,4.5398636,8.0959167,8.0189819,1.8668823,3.4791183,2.8008423,7.6484222,2.8008423,12.5090027v4.5268631h-34.3035889c.5623474,2.9677048,1.7910156,5.2072983,3.6838989,6.7155304,1.8917847,1.5093155,4.4000854,2.2634277,7.5205688,2.2634277,2.506134,0,4.4629211-.3954773,5.8703918-1.189682,1.4074707-.792038,2.4172974-2.0586472,3.0316467-3.7987518h14.1201782c-.9718933,5.0144348-3.479126,8.94104-7.5205688,11.779808-4.0414429,2.8398514-9.1837463,4.2592392-15.4247131,4.2592392h-.0000305ZM329.3991699,81.461731h20.565918c-.4594116-2.5570602-1.5223083-4.4629364-3.1844177-5.7165451-1.6631775-1.2536087-3.9266052-1.8809586-6.7913818-1.8809586-2.8138428,0-5.116272.6403503-6.9062195,1.9188766-1.7921143,1.2796097-3.0197144,3.1724854-3.6838989,5.678627Z"
    />
    <path
      d="M370.9925537,109.7789993v-32.2308655h-6.9073181v-13.8135376h14.1201782v9.2086639h3.2234192c1.1766663-3.3241806,3.0944824-5.7934723,5.7555542-7.4046402,2.6600037-1.6122475,5.6276855-2.4172897,8.9020386-2.4172897h3.9136047v12.2782211h-4.5279541c-3.7868347,0-6.5107422,1.0488281-8.1728516,3.1464844-1.6631775,2.0976562-2.4942017,4.8345795-2.4942017,8.210762v23.0222015h-13.8124695Z"
    />
  </g>
  <path
    d="M81.6693265,47.6384744v-14.7454076h-7.9220964l-5.7422387-10.6882927V5.1399382h-9.1679224L56.1234018.0892316l-5.4101965,5.0507066h-.2220488v.2070743L9.0348199,44.0472597.5009992,94.5488831l43.7899619,43.9955151,34.4597535-10.6454649,18.5002266-50.4802264.1686746-.4637369-15.7502893-29.3164956ZM81.5669724,52.2354496l12.2090347,22.725881-29.2569018-11.0152307-.9426174-7.6156764h17.9904844v-4.0949738ZM79.3806923,35.0620062v8.4827789l-4.557291-8.4827789h4.557291ZM79.3806923,48.1658953v5.9711833h-16.0756386l-1.6367862-13.2251388v-5.8499336h10.6726083l7.0398165,13.1038891ZM71.1625872,32.8686613h-10.4897704l-1.2121926-9.7940129h6.4403962l5.2615667,9.7940129ZM65.7163234,7.3088776v10.802072l-5.8033199-10.802072h5.8033199ZM64.7224614,20.8812698h-5.5330011l-1.6562564-13.3825572,7.1892575,13.3825572ZM54.9097557,4.0987527l.1254412,1.0167801h-1.2148292l1.089388-1.0167801ZM52.5750825,7.3088776h2.7317853l1.6792421,13.5723922h-4.4110275V7.3088776ZM26.8391538,30.3028802v18.8316942h20.0225235v-20.7061459h-18.014518l21.5416431-20.1094975v14.7557174h6.8684377l2.2247474,17.9806479v15.2751271h1.8900347l.8342803,6.7449908-3.2666428-1.2298713v-2.1072836h-5.5970231l-41.3559768-15.570426,14.8524941-13.8649531ZM29.0254339,46.9412296v-16.3194563h15.6499634v16.3194563h-15.6499634ZM61.5262969,65.1628557l-2.5866373,2.3850728v-3.3588561l2.5866373.9737833ZM13.0026624,46.8938384l34.1157451,12.8444209h-23.8004972l-10.3152479-12.8444209ZM39.3876673,83.2442013l-20.7834185-1.4087205v-19.9038767h3.6672028l17.1162157,21.3125971ZM20.5097651,59.7382593h-4.0918302v15.6685886l-4.2135193-26.0102701,8.3053494,10.3416815ZM18.6042488,84.0337946l22.4847675,1.5249336.6738873,15.0638613h-23.1586548v-16.5887949ZM25.0795968,61.9316042h27.8643051l3.8094776,1.434309v6.1978293l-14.6763491,13.5324038-16.9974336-21.1645421ZM10.1142023,50.1561545l5.2095447,32.1597955-12.2138347,9.2877186,7.00429-41.4475141ZM3.2297423,94.2639616l13.1881926-10.0265743v18.578547h25.4429284l1.4176781,31.6873713L3.2297423,94.2639616ZM43.2512966,84.9917584l13.5020829-12.448289v28.0791202h-12.8031142l-.6989687-15.6308311ZM76.9702,126.0967176l-31.4463931,9.7161319-1.4755819-32.9969152h14.8914346v-32.2881775l4.8818291-4.5007394,30.8995357,11.6336818-17.7508245,48.4360184Z"
  />
</svg>
