
<svg xmlns="http://www.w3.org/2000/svg" width="76" height="61" viewBox="0 0 76 61" fill="none">
    <path
        d="M17.8707 35.5938L13.4009 42.1866L13.694 44.6226L19.512 49.1424C19.512 49.1424 25.8137 54.0689 29.2173 54.5517C30.3458 54.7114 41.0183 46.4995 48.1004 42.8291C53.8488 39.8486 57.2011 38.7195 57.2011 38.7195L64.558 40.1463L50.5294 26.9207C50.5294 26.9207 40.4174 33.0851 37.992 35.5901C35.5666 38.0951 29.1954 42.6041 29.1954 42.6041L22.3185 40.542L17.8707 35.5901V35.5938Z"
        fill="url(#paint0_linear_2717_638)" />
    <path
        d="M22.8241 23.6316L18.6034 29.8432L22.6995 34.6026L28.9938 36.5304L39.3073 27.89L45.3745 24.4339L49.6208 22.557L43.1506 17.3219C43.1506 17.3219 35.061 17.8229 32.13 21.4279C32.13 21.4279 26.4695 26.8372 25.5572 26.1366L22.8277 23.6316H22.8241Z"
        fill="url(#paint1_linear_2717_638)" />
    <path
        d="M32.9983 6.104L23.4579 18.8286C23.4579 18.8286 25.2092 21.4279 26.1874 20.8834C27.2865 20.2735 31.3277 16.1166 33.1339 15.2708C36.75 13.5754 35.149 14.0836 39.3073 13.0163L42.264 13.5282L32.9983 6.104Z"
        fill="url(#paint2_linear_2717_638)" />
    <defs>
        <linearGradient id="paint0_linear_2717_638" x1="64.558" y1="61.5928" x2="27.369"
            y2="1.44088" gradientUnits="userSpaceOnUse">
            <stop offset="0.333372" stop-color="#3FB0FF" />
            <stop offset="0.71875" stop-color="#9236EA" />
            <stop offset="1" stop-color="#F29A6B" />
        </linearGradient>
        <linearGradient id="paint1_linear_2717_638" x1="64.558" y1="61.5928" x2="27.369"
            y2="1.44088" gradientUnits="userSpaceOnUse">
            <stop offset="0.333372" stop-color="#3FB0FF" />
            <stop offset="0.71875" stop-color="#9236EA" />
            <stop offset="1" stop-color="#F29A6B" />
        </linearGradient>
        <linearGradient id="paint2_linear_2717_638" x1="64.558" y1="61.5928" x2="27.369"
            y2="1.44088" gradientUnits="userSpaceOnUse">
            <stop offset="0.333372" stop-color="#3FB0FF" />
            <stop offset="0.71875" stop-color="#9236EA" />
            <stop offset="1" stop-color="#F29A6B" />
        </linearGradient>
    </defs>
</svg>