<svg width="366" height="366" viewBox="0 0 366 366" fill="none" xmlns="http://www.w3.org/2000/svg">
<path d="M365.649 205.273L351.828 151.4C351.432 149.815 350.156 148.583 348.571 148.187L295.182 135.027C294.786 134.939 294.346 134.895 293.95 134.895C292.674 134.763 291.353 135.159 290.385 136.127L200.288 226.223L188.361 179.657C187.965 178.072 186.688 176.84 185.104 176.444L139.241 165.132L229.294 75.0798C229.822 74.5516 230.13 73.8914 230.35 73.2312C230.746 72.3509 230.878 71.3386 230.614 70.3703L216.794 16.4973C216.398 14.9128 215.121 13.6804 213.537 13.2842L160.148 0.124079C159.091 -0.140005 158.035 0.0360506 157.111 0.47619H157.067C156.803 0.608231 156.583 0.78429 156.319 0.960345C156.099 1.1364 155.79 1.22443 155.614 1.4445L1.91792 155.053C1.91792 155.053 1.65384 155.493 1.47779 155.713C0.509482 156.858 0.157368 158.354 0.597507 159.807L15.5182 211.875C15.9583 213.371 17.1027 214.516 18.5552 214.912L68.5549 229.26L82.9035 279.216C83.3436 280.713 84.488 281.857 85.9404 282.253L136.116 296.646L150.509 346.822C150.949 348.318 152.093 349.462 153.546 349.859L205.834 364.867C206.23 364.999 206.67 365.043 207.067 365.043C207.155 365.043 207.243 364.999 207.375 364.999C207.375 364.999 207.419 364.999 207.463 364.999C208.607 364.999 209.751 364.559 210.632 363.679L364.372 209.938C364.9 209.41 365.208 208.75 365.429 208.09C365.825 207.21 365.957 206.197 365.693 205.229L365.649 205.273ZM296.723 265L285.499 221.206L310.367 196.382L353.105 208.662L296.767 265.044L296.723 265ZM209.531 352.191L198.308 308.397L243.29 263.415L286.027 275.695L209.531 352.191ZM244.214 249.903L233.475 212.491L272.075 221.998L244.214 249.859V249.903ZM278.193 228.512L288.052 266.936L250.508 256.153L278.193 228.468V228.512ZM279.469 214.648L235.72 203.864L291.925 147.659L304.073 190.044L279.469 214.648ZM224.848 214.692L236.996 257.077L192.234 301.839L148.484 291.056L224.848 214.692ZM343.862 156.109L355.085 199.903L312.656 187.711L300.508 145.414L343.862 156.109ZM141.882 284.542L130.659 240.748L146.856 224.551L189.593 236.831L141.882 284.542ZM147.78 211.039L137.041 173.627L175.641 183.134L147.78 210.995V211.039ZM191.618 228.116L154.074 217.333L181.759 189.648L191.618 228.072V228.116ZM140.606 218.257L124.629 234.234L80.8788 223.451L128.458 175.872L140.606 218.257ZM90.2538 79.3051L102.402 121.69L57.2434 166.849L13.4936 156.065L90.2538 79.3051ZM156.935 12.624L169.083 55.0094L144.875 79.2171L101.125 68.4337L156.935 12.624ZM162.128 129.569L150.905 85.8191L175.377 61.3474L218.114 73.5833L162.128 129.569ZM109.62 114.516L98.8805 77.1044L137.481 86.6114L109.62 114.472V114.516ZM143.599 93.1255L153.458 131.55L115.958 120.766L143.643 93.0814L143.599 93.1255ZM108.74 127.984L151.477 140.22L74.5848 217.113L63.3613 173.363L108.74 127.984ZM208.871 21.1627L220.095 64.9566L177.665 52.7647L165.518 10.4673L208.871 21.1627ZM11.2929 164.736L49.8931 174.243L22.0323 202.104L11.2929 164.692V164.736ZM28.3262 208.442L56.011 180.757L65.8701 219.181L28.3703 208.398L28.3262 208.442ZM90.7819 274.419L78.6341 232.121L121.988 242.817L133.211 286.611L90.7819 274.419ZM146.283 299.727L184.884 309.234L157.023 337.094L146.283 299.683V299.727ZM163.317 343.432L191.002 315.748L200.861 354.172L163.317 343.388V343.432Z" fill="white"/>
</svg>
