<svg width="40" height="40" viewBox="0 0 40 40" fill="none" xmlns="http://www.w3.org/2000/svg">
<g clip-path="url(#clip0_2676_436421)">
<circle cx="20" cy="20" r="20" fill="black"/>
<path d="M19.9991 3.5C9.87269 3.5 3.5 10.2669 3.5 19.9561C3.5 29.5421 10.0678 36.5 19.9991 36.5C29.9315 36.5 36.5 29.5244 36.5 19.9142C36.5 10.2498 30.0569 3.5 19.9991 3.5ZM20.011 35.5536C12.2353 35.5536 7.5483 29.3811 7.5483 19.8281C7.5483 10.1961 12.3604 4.44581 20.011 4.44581C27.7517 4.44581 32.5089 10.534 32.5089 19.9561C32.5089 29.5769 27.5121 35.5536 20.011 35.5536Z" fill="#EBEBEB"/>
<path d="M23.1701 10.0968C23.0201 9.96772 22.7985 9.96772 22.6484 10.0968C22.6484 10.0968 20.7134 11.7579 20.209 12.1865C20.1437 12.242 20.1453 12.3298 20.2122 12.3831C20.7615 12.8195 22.9134 14.5198 22.9223 14.5282C22.9746 14.5805 23.0358 14.6563 23.0358 14.8063V18.3052C23.0358 18.3836 23.0802 18.4327 23.1225 18.4526C23.1487 18.4661 23.202 18.4792 23.2574 18.4364L25.6905 16.4909C25.7543 16.4397 25.7919 16.3623 25.7919 16.2808V12.5467C25.7919 12.4228 25.7376 12.3047 25.6435 12.2237L23.1701 10.0968Z" fill="#EBEBEB"/>
<path d="M16.8743 24.8618C16.8215 24.8095 16.7609 24.7337 16.7609 24.5837V21.0848C16.7609 21.0064 16.7164 20.9573 16.6741 20.9374C16.6475 20.9238 16.5941 20.9107 16.5392 20.9536L14.1061 22.8991C14.0424 22.9503 14.0047 23.0276 14.0047 23.1092V26.8433C14.0047 26.9672 14.0591 27.0853 14.1532 27.1663L16.6265 29.2926C16.7766 29.4217 16.9982 29.4217 17.1482 29.2926C17.1482 29.2926 19.0832 27.6315 19.5876 27.2029C19.6529 27.1475 19.6514 27.0597 19.5844 27.0064C19.0351 26.5699 16.8832 24.8696 16.8743 24.8612V24.8618Z" fill="#EBEBEB"/>
<path d="M22.8272 19.7927L17.0844 15.03C16.9867 14.9495 16.9318 14.8282 16.9328 14.6981C16.9339 14.5679 16.9914 14.4482 17.0896 14.3693C17.0896 14.3693 19.0711 12.7871 19.5829 12.3805C19.6482 12.3287 19.6498 12.2425 19.586 12.1886C19.0858 11.7632 17.145 10.0968 17.145 10.0968C16.995 9.96772 16.7729 9.96772 16.6229 10.0968L14.1485 12.2237C14.0544 12.3047 14 12.4228 14 12.5467V17.035C14 17.1547 14.0538 17.2687 14.1469 17.3445L22.9898 24.5895C23.0196 24.614 23.0373 24.6506 23.0373 24.6893C23.0373 24.7285 23.0196 24.7672 22.9887 24.7918C22.9887 24.7918 20.7615 26.571 20.2117 27.0074C20.1489 27.0571 20.1474 27.1507 20.2085 27.2024C20.7114 27.6305 22.6474 29.2932 22.6474 29.2932C22.7974 29.4223 23.0196 29.4223 23.1696 29.2932L25.6424 27.1669C25.7365 27.0858 25.7909 26.9677 25.7909 26.8438V22.3565C25.7909 22.2348 25.7355 22.1203 25.6403 22.044L22.8262 19.7927H22.8272Z" fill="#EBEBEB"/>
</g>
<defs>
<clipPath id="clip0_2676_436421">
<path d="M0 20C0 8.95431 8.95431 0 20 0V0C31.0457 0 40 8.95431 40 20V20C40 31.0457 31.0457 40 20 40V40C8.95431 40 0 31.0457 0 20V20Z" fill="white"/>
</clipPath>
</defs>
</svg>
