<svg
  viewBox="0 0 20 21"
  fill="none"
  xmlns="http://www.w3.org/2000/svg"
  class="w-8 h-8"
>
  <path
    d="M0 10.363c0-5.523 4.477-10 10-10s10 4.477 10 10c0 5.522-4.477 10-10 10s-10-4.478-10-10Z"
    fill="#fff"
  ></path>
  <path
    d="M8.877 14.495 7.714 14.2l-.428 1.692 1.163.294.428-1.691Z"
    fill="#664AED"
  ></path>
  <path
    d="m10.893 15.005-1.164-.295-.428 1.691 1.163.295.429-1.692ZM13.461 4.851l-1.163-.295-.428 1.692 1.163.294.428-1.691Z"
    fill="#146AF4"
  ></path>
  <path
    d="m11.454 4.336-1.163-.294-.428 1.691 1.163.295.428-1.692Z"
    fill="#664AED"
  ></path>
  <path
    d="m11.435 15.148-6.007-1.524.36-1.429 6.008 1.524c.516.133 1.03-.154 1.149-.633.117-.478-.2-.971-.715-1.104l-3.754-.95.36-1.428 3.755.95c1.355.346 2.202 1.656 1.878 2.915-.324 1.26-1.686 2.018-3.041 1.671l.007.008Z"
    fill="#9077ED"
  ></path>
  <path
    d="m11.024 6.033-1.962-.497-2.146 8.472 1.963.497 2.145-8.472Z"
    fill="#664AED"
  ></path>
  <path
    d="m11.65 11.076-3.755-.95.36-1.428 3.756.95c.515.132 1.03-.155 1.148-.633.118-.479-.199-.972-.714-1.105L7.203 6.585l.36-1.428 5.243 1.325c1.355.346 2.201 1.656 1.877 2.915-.324 1.26-1.686 2.018-3.04 1.672l.007.007Z"
    fill="#6FF1E1"
  ></path>
  <path
    d="M11.015 6.027 9.053 5.53l-.41 1.62 1.962.497.41-1.62Z"
    fill="#664AED"
  ></path>
</svg>
