<svg xmlns="http://www.w3.org/2000/svg" viewBox="0 0 5221.97 766.82" style="enable-background:new 0 0 5221.97 766.82" xml:space="preserve"><path d="M4569.42 127.8h-121.09l-113.18 511.21h121.1zm524.75 0h-121.1L4859.9 639.01h121.09z"/><path d="m4690.52 127.8 169.38 511.21h-121.1L4569.42 127.8h121.1zM1695.3 517.92l86.37-390.12h-121.09L1547.4 639.01h645.84l26.8-121.09zm662.23-390.12-113.18 511.21h450.47c107.89 0 214.72-87.47 238.61-195.36l-94.28-121.09h121.09c23.81-107.56-44.08-194.75-151.64-194.75h-451.07zm364.72 390.12h-329.99l16.44-74.27h403.65l-.13.61c-9.01 40.68-49.29 73.66-89.97 73.66zm116.91-195.36h-403.65l16.31-73.66h329.99c40.68 0 66.35 32.98 57.35 73.66zm1444.87 316.45 43.25-195.36L4233 322.56h121.09c23.81-107.56-44.08-194.75-151.64-194.75h-451.08l-113.17 511.2h121.09l43.25-195.36h403.65l-43.25 195.36h121.09zM4233 322.56h-403.65l16.31-73.66h329.99c40.68 0 66.36 32.98 57.35 73.66zM3054.42 127.8l-113.18 511.21h645.83l113.18-511.21h-645.83zm438.37 390.12h-403.65l59.56-269.02h403.65l-59.56 269.02zM1273.7 127.8h-133.94l-315 511.21h121.09L1273.7 127.8h133.93l88.65 511.21h-121.09zm-507.98 0-43.18 195.06H318.89l43.18-195.06H240.98L127.8 639.01h121.1l69.99-316.15 94.28 121.1h282.56l-43.19 195.05h121.1L886.81 127.8z"/></svg>