<svg width="76" height="48" fill="none" xmlns="http://www.w3.org/2000/svg"><g clip-path="url(#a)" fill="#fff"><path d="M21.798 22.605c-.042 2.207-.039 3.899 0 4.972a8.176 8.176 0 0 1 3.96 3.693 8.237 8.237 0 0 1 .796 5.37 8.21 8.21 0 0 1-2.716 4.693 8.131 8.131 0 0 1-10.19.325 8.202 8.202 0 0 1-3.007-4.51 8.239 8.239 0 0 1 .456-5.41 8.183 8.183 0 0 1 3.718-3.938c.018-.085.032-.17.04-.256.037-.46.027-2.821-.01-4.816a12.848 12.848 0 0 0-7.171 5.481 12.958 12.958 0 0 0-1.823 8.867 12.92 12.92 0 0 0 4.422 7.889 12.802 12.802 0 0 0 8.491 3.026 12.806 12.806 0 0 0 8.38-3.325 12.955 12.955 0 0 0 2.012-16.837 12.843 12.843 0 0 0-7.358-5.224Zm18.889.263h4.7l9.353 24.448h-4.815l-1.9-5.035h-9.926l-1.98 5.035h-4.81l9.378-24.448Zm2.378 6.481-3.264 8.393h6.507l-3.243-8.393Zm15.264-6.481h4.689v8.422l6.602-8.422h5.56l-8.497 10.91 9.32 13.538h-5.495l-7.506-10.863v10.863h-4.673V22.868Z"/><path d="M23.29 35.088c0 .945-.278 1.868-.8 2.654a4.758 4.758 0 0 1-2.134 1.76 4.73 4.73 0 0 1-5.18-1.036 4.8 4.8 0 0 1-1.03-5.206 4.773 4.773 0 0 1 1.75-2.144 4.737 4.737 0 0 1 6.002.594 4.79 4.79 0 0 1 1.392 3.378Z"/><path fill-rule="evenodd" clip-rule="evenodd" d="M34.9 18.968c-.224-.222-.553-.198-.846-.35a1.867 1.867 0 0 1 1.712 0c.492.252.916.62 1.236 1.072.112.147.098.205-.087.273a2.97 2.97 0 0 1-1.548.176c-.75-.132-1.182-.63-1.414-1.362.349-.023.626.22.953.188-.016.074.035.067.078.063.01 0 .02-.01.028-.017l-.111-.043Zm.133-2.493a.294.294 0 0 1-.282-.222.298.298 0 0 1-.004-.128c.028-.593.412-1.064 1.068-1.24.266-.073.64-.243.793-.046.153.196-.093.517-.23.758-.289.498-.688.849-1.345.878Zm-.717-2.44c-.142.025-.126-.031-.082-.135a1.447 1.447 0 0 1 1.028-.863c.307-.084.629-.106.944-.063.1.014.189 0 .163.163-.136.814-1.179 1.423-1.954 1.156-.192-.067-.141-.156-.11-.274a.252.252 0 0 0 .295-.145.138.138 0 0 0 .147-.072l.159-.065.02-.025.02-.019-.035.05c-.06 0-.134-.027-.157.064-.06 0-.138-.032-.147.074a.296.296 0 0 0-.291.154Zm-.894 3.93.623-.226c-.286-.028-.46.101-.656.122 0-.46.393-.9.92-1.01.397-.08.808-.043 1.185.104.098.036.175.056.115.201-.31.714-1.44 1.153-2.187.809Zm2.205-.388a.773.773 0 0 1 .698-.67c.108 0 .11.053.113.132a.932.932 0 0 1-.534.763c-.22.079-.279-.027-.277-.225Z"/><path fill-rule="evenodd" clip-rule="evenodd" d="m34.9 18.968.112.039s-.017.018-.028.018c-.043 0-.094.01-.078-.064l-.005.007Zm-.584-4.933a.297.297 0 0 1 .297-.146.254.254 0 0 1-.295.146h-.002Zm.597-.293.035-.049-.02.02-.02.024.005.005Zm-.161.06a.138.138 0 0 1-.146.072c.008-.106.087-.07.146-.074v.002Z"/><path fill-rule="evenodd" clip-rule="evenodd" d="m34.913 13.737-.159.065c.023-.091.098-.058.157-.065h.002Z"/><path d="M32.408 17.498a1.657 1.657 0 0 0-.739-.38 3.548 3.548 0 0 0-3.072.77c-.09.075-.154.194-.29.209v-.011c.013.063-.019.08-.075.076.009.057-.022.075-.075.073a3.059 3.059 0 0 1-.733.676v-.01c-.02.129-.119.175-.223.217-.032.058-.05.138-.142.086-.082.228-.303.305-.482.419-.56.35-.85.35-1.396-.05-.41-.296-.817-.598-1.222-.896-.314-.117-.669-.098-.958-.29h-.048c-.157.145-.349.062-.513.059a10.657 10.657 0 0 1-1.7-.214c.365-.316.637-.63 1.018-.818.58-.526 1.304-.56 2.028-.588.195-.064.4-.084.604-.06.57-.076 1.157-.07 1.676-.376l.084-.067c.415-.372.445-.923.64-1.404.042-.047 0-.145.1-.163h-.01c.022-.282.174-.526.232-.8a.207.207 0 0 1 .2-.175c.606-.076 1.03-.45 1.423-.877l.272-.472-.063-.048c-.11.025-.116.202-.26.176l-.008-.014c.073.114-.063.123-.091.175-.086.2-.318.137-.449.256-.056.204-.248.176-.386.207-.25.07-.364-.017-.254-.29.096-.236.174-.483.284-.712.547-1.114 1.641-1.445 2.856-1.11.152-.032.309-.032.46 0 .2-.046.434.061.615-.121-1.073-.035-2.128-.597-3.189-.033-1.176.701-1.746 1.822-2.053 3.112a5.98 5.98 0 0 1-.524 1.403c-.328.622-.617.783-1.302.657-1.038-.192-2.025-.15-2.953.443a6.03 6.03 0 0 1-1.509.63c.11-.307.201-.556.292-.805.175-.472.35-.935.761-1.267a5.263 5.263 0 0 1 1.184-.854c.151-.204.387-.297.588-.439.32-.24.612-.515.873-.819.042-.072.106-.135.096-.228a5.594 5.594 0 0 0-.219-1.579 3.699 3.699 0 0 0-.123-.642c-.163-.426.075-.632.387-.81-.024-.074.024-.11.08-.141.148-.313.271-.638.369-.97-.109-.116-.03-.286-.102-.43-.102.125-.062.28-.174.368a.275.275 0 0 1-.145.23c-.045.276-.374.702-.515.632-.208-.1-.175-.351-.2-.546-.105-.73-.104-1.445.472-2.02l.08-.113v-.025h.025l.115-.082c.38-.383.882-.539 1.364-.733l.267-.15c.115-.133.335-.145.424-.384-.27.168-.565.293-.873.37-.96.234-1.72.718-2.14 1.651-.308.763-.38 1.6-.21 2.406.14.605.313 1.207.392 1.82.174 1.351 0 1.497-1.013 1.883a5.032 5.032 0 0 0-1.438.821c0 .044-.028.06-.067.065l-.206.295-.32.5c-.18.326-.397.63-.648.903l-.35.463c-.31-1.094-.39-2.147.22-3.158l.1-.233c.03-.031.024-.107.096-.09-.035-.175.089-.287.15-.422.251-.546.524-1.086.524-1.705a2.356 2.356 0 0 0-.571-.892c-.138-.16-.321-.286-.393-.498-.265-.175-.431-.454-.646-.68a.175.175 0 0 1-.05-.227c.235-.505.151-1.023.034-1.538-.174-.223-.204-.551-.51-.799.107.323.24.544.222.804.107.095.065.193.01.291.148.233 0 .437-.067.647-.068.21-.156.176-.281.044a3.375 3.375 0 0 1-.71-1.007c-.21-.503-.306-1.017-.046-1.538a2.2 2.2 0 0 1 .653-1.099 1.95 1.95 0 0 1 .45-.654c-.145-.056.105-.165-.038-.23-.334.395-.674.79-1.006 1.191a2.13 2.13 0 0 0-.497 1.269 5.36 5.36 0 0 0 .24 1.654l-.01.009c.112.04.056.147.09.22l.046.05c.23.369.495.713.793 1.028.04.042.13.086.052.176.31.117.471.387.643.645l-.014.01c.078-.025.1 0 .076.075.072 0 .145.015.076.119.073-.037.115-.009.134.068l.08.116c.247.213.426.495.513.81a.705.705 0 0 1-.033.818c-.159.245-.334.48-.523.702-.5.58-.772 1.322-.765 2.09a9.32 9.32 0 0 1-.22 1.89 3.833 3.833 0 0 1-.595-.701c-.524-.498-.699-1.146-.81-1.828a.1.1 0 0 1 .07-.114.418.418 0 0 1-.01-.49c-.188-.175-.113-.402-.132-.607-.049-.526-.077-1.067-.335-1.552l-.084-.128a1.364 1.364 0 0 0-.597-.367c-.323-.123-.67-.176-.97-.351-.283-.012-.524-.165-.793-.232-.075-.019-.146-.049-.153-.133-.055-.616-.439-1.053-.82-1.475-.24-.027-.371-.297-.64-.3.06.175.257.203.299.363.068 0 .087.042.073.103.114.113.258.207.229.402.373.125.248.435.283.739-.914-.25-1.73-.553-2.062-1.528a.295.295 0 0 1-.079-.297c-.152-.277-.08-.577-.06-.863.011-.186-.093-.414.127-.556-.128-.176-.039-.386-.046-.58-.036-.13.033-.282-.085-.447-.11 1.083-.608 2.106-.053 3.169h-.012a.222.222 0 0 1 .145.226c.351.433.746.828 1.178 1.18.873.429 1.832.61 2.729.967.349.14.698.267.939.588.284.263.225.598.175.923-.083.62-.198 1.228-.05 1.86.095.302.216.596.362.877l.033.091a8.82 8.82 0 0 1 .716 1.642 3.562 3.562 0 0 1-.805-.277c-.473-.158-.923-.35-1.253-.753a7.647 7.647 0 0 1-.952-1.301l-.32-.469c-.29-.324-.523-.701-.938-.905a.597.597 0 0 0-.06-.03c-.544-.175-1.047.074-1.57.14-.194.018-.385.06-.568.127-.436.175-.73.014-.946-.365a6.867 6.867 0 0 0-1.035-.465.392.392 0 0 1-.065-.01H7.471c.372.156.699.084.936.287.09.08.236.055.31.165a.548.548 0 0 1 .542.491c.017.16-.3.15-.478.192a.719.719 0 0 1-.105.03c-.698.066-1.397.077-1.938-.497l-.3-.304c-.302-.312-.414-.726-.594-1.103a1.96 1.96 0 0 1-.232-.497c-.063-.019-.092-.122-.174-.072.326.964.523 2.002 1.518 2.564.065 0 .126 0 .147.073.08.02.157.046.234.076a3.666 3.666 0 0 0 2.358.194c.566-.136 1.137-.26 1.708-.377 1.066-.219 1.536-.05 1.83.753.338.918.79 1.723 1.654 2.233.551.265.998.674 1.487 1.08a3.323 3.323 0 0 1-.817.176c-.478.097-.956.158-1.433-.012a7.046 7.046 0 0 1-1.482-.645l-.567-.267a8.67 8.67 0 0 0-1.252-.38l-.206.055c-.445.242-.773.635-1.18.927-.232.214-.46.43-.698.64-.06.053-.114.15-.215.096-.548-.285-1.107-.147-1.665-.04h.008a1.871 1.871 0 0 1-.722.372c0 .017 0 .035-.009.053.283.044.524-.11.765-.193h.36c.193-.024.39.004.57.08.213.086.264.176.065.351-.253.25-.54.462-.852.63-.589.277-1.187.395-1.793.042-.066.01-.13.016-.148-.073v.012c-.388-.146-.69-.42-1.01-.669-.127-.03-.253-.061-.26-.23-.099.062-.146 0-.192-.077v.01c-.07 0-.143-.047-.207 0 .328.287.653.578.986.859.333.28.648.526 1.072.6a3.58 3.58 0 0 0 3.142-.918c.103-.093.164-.28.363-.228a.978.978 0 0 1 .574-.554l.35-.369.106-.077a1.58 1.58 0 0 1 .796-.512c.29-.209.578-.144.845.035s.524.391.794.591c.498.416 1.12.653 1.767.674.623.014 1.244.072 1.859.175a.421.421 0 0 1 .407.413c.137.778.193 7.305.13 8.09-.146 1.813-1.68 3.952-2.443 5.518.148.192 1.677-.582 1.536-.35.024 0 .36.29.384.285.523-.112-.665-.715-.175-1.01.396-.24.592-.093.548.374-.012.13-.039.26-.08.386h.76a.379.379 0 0 1 .022-.176c.114-.336.292-.646.524-.914a.404.404 0 0 1 .658.02.972.972 0 0 1 .19.43c.041.211.07.424.088.638h1.017c.175-.272.471-.437.669-.339a.446.446 0 0 1 .26.339h.854a3.489 3.489 0 0 1-.234-.386c-.047-.093-.137-.216-.065-.307.072-.091.206-.035.313 0 .298.084.481 2.156.787 2.22 0-.229.551-1.136.602-1.357-.438-1.168-2.369-2.546-2.674-3.832-.306-1.286-.098-8.286-.058-9.56 0-.073 0-.155.101-.175.76-.094 1.493-.384 2.27-.308h-.01c.485.011.956.17 1.35.456.054.094.203.028.245.143a.638.638 0 0 1 .41.122c.555.27 1.112.54 1.737.619.035-.047.064-.107.14-.065.38-.04.598-.335.872-.546.131-.1.21-.279.402-.29.111-.271.403-.366.57-.58.168-.214.35-.22.603-.138.73.228 1.377 0 2.055-.44-.257-.03-.395.14-.568.075v-.01c-.031.115-.127.052-.194.071a.29.29 0 0 1-.25.054 1.217 1.217 0 0 1-.67-.128c-.143-.066-.174-.136-.047-.263.391-.375.802-.717 1.341-.849.41-.102.826-.165 1.222.074.445.08.777.35 1.091.656l.524.386c.122-.058.216.109.363.04-.425-.366-.836-.724-1.257-1.072Z"/><path fill-rule="evenodd" clip-rule="evenodd" d="M8.554 12.772a.372.372 0 0 1-.065-.01c-.688-.397-.922-1.02-.873-1.78.009-.135-.016-.33.232-.228l.096.074a.088.088 0 0 0-.035-.137 2.622 2.622 0 0 1-.621-1.5c-.023-.217.037-.263.234-.2.272.088.548.165.897.269-.2-.255-.349-.45-.503-.634-.153-.184-.127-.265.098-.328.946-.26 1.858-.319 2.652.407.037.034.075.058.112 0h-.013c-.054.142.05.176.145.227-.047.082.098.142.023.238-.377-.116-.744-.282-1.18-.28.422.175.84.247 1.248.46-.57.424-1.149.604-1.819.352-.106-.042-.199-.153-.333-.091v-.057l-.05.014.055.037c.295.351.565.732.524 1.267-.248-.144-.35-.45-.659-.526l.615.679c-.372.154-.698-.032-.993 0 .11.13.218.245.312.371.339.443.288 1.127-.1 1.376ZM8.44 9.235c-.016.014-.043.037-.042.04a.477.477 0 0 0 .054.067c.01-.02.03-.04.027-.056-.004-.016-.027-.033-.04-.05h.001Zm23.898 6.767c-.698.76-1.082.961-1.746.944-.036-.157.2-.13.175-.314l-.377.226c-.09-.621.033-1.155.452-1.591.485-.504 1.123-.663 1.791-.725.143-.012.197.028.164.188a4.05 4.05 0 0 1-.291.884c.122.058.166-.04.221-.091.487-.463 1.091-.627 1.734-.688.098 0 .221-.054.216.144-.024.782-.794 1.884-1.532 2.142-.23.08-.468.197-.723.08-.229-.105-.203-.306-.175-.5.028-.192.047-.427.091-.7Zm-1.265.363c-.126.044-.205.132-.317.312a.58.58 0 0 0 .35-.286.35.35 0 0 0 .174-.201c-.134.003-.173.09-.207.175ZM15.82 2.807c.062.15.219.175.332.258a2.044 2.044 0 0 1 .917 1.74l-.206-.165-.065-.079-.066-.084a.367.367 0 0 0-.222-.209c-.028-.09-.064-.163-.174-.126V4.09h-.046l.046.043a.218.218 0 0 0 .145.149c.038.1.11.183.202.237l.061.089.063.08c.149.176.175.278-.124.274a3.476 3.476 0 0 1-.83-.12c-.03-.032-.06-.06-.1-.016l.066.047c.454.367.836.78.923 1.403a.63.63 0 0 1 0 .376c-.232-.22-.382-.505-.687-.625.153.176.31.362.459.546.047.061.155.116.101.21-.054.095-.152.055-.234.057-.775.035-1.41-.38-1.745-1.148a4.035 4.035 0 0 1-.264-1.065c-.031-.23.042-.284.258-.208.217.075.445.124.667.175l.148.072c.037.047.1.093.133.044.033-.05-.054-.065-.082-.1-.028-.035-.077-.06-.117-.088a3.077 3.077 0 0 1-.715-1.647c-.039-.276-.013-.434.328-.304.268.102.553.167.83.248l-.003-.011ZM7.089 14.09c.02.084.216.203-.054.226-.34.03-.671.13-.972.293l1.255-.223a1.754 1.754 0 0 1-.714.971 1.739 1.739 0 0 1-1.168.278 3.902 3.902 0 0 1-1.123-.31c-.244-.107-.214-.21-.055-.351.158-.142.357-.332.602-.562-.433 0-.796.097-1.16 0a4.462 4.462 0 0 1-.931-.315c-.091-.046-.158-.078-.072-.214.614-.974 2.065-1.38 3.072-.818-.324.123-.661.107-.94.303l1.02-.163c-.107.342-.299.65-.556.899a3.3 3.3 0 0 1 1.66-.076c0 .116.085.084.153.08l-.017-.019Zm15.999-6.693c-.154-.014-.135-.134-.149-.237a2.133 2.133 0 0 0-.279-.877l.22 1.164a1.726 1.726 0 0 1-1.248-1.55 3.117 3.117 0 0 1 .339-1.525c.075-.161.141-.167.263-.05.263.245.5.516.71.808-.3-.854-.107-1.635.294-2.397 1.137.828 1.617 2.314.92 3.127-.072-.316-.082-.634-.274-.895.038.332.143.654.155 1.005-.37-.065-.593-.365-.914-.505.324.665.174 1.296-.04 1.93l.003.002Zm5.436 3.538c-.204-.082-.252.186-.46.175.1-.39.273-.77.284-1.228l-.45 1.293c-.425-.565-.594-1.12-.38-1.824l-.401.254c.08-.361.192-.68.174-.942l-.302.937c-.63-.686-.569-1.53.152-2.232.135-.133.276-.37.458-.308.136.045.14.317.195.493.119.386.047.777.068 1.166h-.052c.006.015.012.03.02.044.008-.02.017-.038.027-.058l.737-.635c.155-.133.251-.145.323.097.274.935.32 1.83-.367 2.631-.03.034-.108.077-.024.139l-.002-.002ZM12.803 8.502c-.393-.691-.292-1.346.15-1.969.054-.079.08-.268.258-.138.047.04.037.175.096.142.06-.033.024-.139-.031-.202a2.831 2.831 0 0 1-.107-.877c.012-.237-.054-.561.372-.283.026-.212-.131-.263-.2-.363-.312-.442-.338-.935-.296-1.445 0-.099.03-.155.155-.128.524.103 1.104.836 1.081 1.387-.023.551-.175.674-.698.493.045.162.187.188.284.256.472.337.796.765.819 1.362.012.368-.143.482-.494.391a2.246 2.246 0 0 1-.742-.409c.108.328.227.65.175.995a1.232 1.232 0 0 1-.58.851 2.781 2.781 0 0 1-.04-.726c-.21.161.044.49-.21.658l.008.005Z"/><path fill-rule="evenodd" clip-rule="evenodd" d="m25.4 5.912.266-.149a2.278 2.278 0 0 1 1.706.484c.298-.86.895-1.25 1.784-1.21.214.01.244.072.174.263-.13.344-.321.66-.565.933.022.018.038.042.052.04.409-.013.42 0 .37.436a.892.892 0 0 1-.592.807c-.303.11-.43 0-.398-.32.039-.204.122-.398.245-.566.052-.016.084-.063.054-.098-.03-.035-.101-.028-.145.019-.154.037-.306.075-.46.109-.31.063-.537 0-.523-.416-.483.35-.937.702-1.552.563a1.095 1.095 0 0 1-.714-.509l.69-.1c-.19-.098-.379-.012-.562-.04-.035-.15.111-.165.17-.246Zm-6.06 3.623c.01-.395.267-.646.524-.895.511-.107.511-.107.392.478.35-.237.627-.513.985-.655.134-.054.026-.175 0-.252a2.576 2.576 0 0 1-.189-1.004c0-.125.018-.232.187-.165.594.23 1.133.526 1.374 1.174.064.16.086.334.065.505-.028.2-.131.325-.364.282a1.513 1.513 0 0 1-.902-.482c0 .246.012.421 0 .593a1.271 1.271 0 0 1-1.033 1.214c-.257.044-.175-.093-.142-.216a.07.07 0 0 0 .05-.037.071.071 0 0 0 0-.063L20.25 10c-.026.035-.052.074-.014.117-.148.1-.19.037-.206-.117-.017-.175.104-.35.021-.55-.233.07-.459.218-.71.078v.007Zm-9.9 8.369c-.349.031-.595-.211-.872-.351.076-.121-.053-.186-.075-.28-.023-.092-.128-.208-.058-.303s.199-.023.302-.02c.06 0 .119.017.175.024.036.047.078.075.137.031-.027-.031-.057-.061-.085-.091a2.394 2.394 0 0 1-.597-.825c-.065-.16-.133-.164-.27-.094a2.33 2.33 0 0 1-1.029.208c-.098 0-.19.01-.174-.154.08-.702.925-1.491 1.607-1.496.175 0 .21.049.133.196-.079-.039-.124 0-.15.07a.324.324 0 0 0-.241.193c.084-.06.222-.047.237-.198.077.037.123 0 .149-.07.111-.021.255-.133.23.131a1.6 1.6 0 0 1-.438.937c.27.02.524.028.76.056.392.05.624.364.92.576-.046.035-.037.077-.023.126.174.618.106.702-.541.62-.072 0-.142-.027-.212-.04-.031 0-.082-.025-.092-.013-.032.038.012.052.04.068.138.205.198.453.167.699Zm14.323-6.72c.372-.409.795-.635 1.358-.386-.036.225-.244.323-.349.493l-.06.048c.01 0 .02.014.029.01.037 0 .047-.028.026-.061.395-.046.784-.162 1.187-.093.166.028.13-.102.138-.19.042-.354.161-.695.35-.998.05-.084.085-.175.217-.072.645.477.837 1.651.323 2.339-.026-.288 0-.542-.153-.786l.077.835c-.45-.165-.65-.51-.812-.916-.157.217-.281.423-.438.6a1.162 1.162 0 0 1-1.32.372c-.243-.08-.35-.212-.162-.472.13-.172.27-.336.419-.491a1.01 1.01 0 0 1-.83-.232Zm-7.939-8.366c.026-.027.042-.053 0-.086-.675-.637-.485-1.434-.084-2.106.12-.205.201-.144.311 0 .324.394.516.879.55 1.388.05-.033.079-.04.082-.054.15-.516.155-.527.545-.153.5.479.845 1.023.639 1.754a.992.992 0 0 1-.098.192c-.141-.12-.22.156-.433.022-.607-.377-.772-.91-.698-1.652-.131.279-.149.526-.362.712l-.118-.717h-.032v.731c-.13.08-.192-.131-.309-.042l.007.01Zm1.831.671-.031-.063c-.01.02-.03.037-.03.056 0 .02.018.04.028.062a.553.553 0 0 1 .033-.055Zm13.213 10.906-.46.295a1.78 1.78 0 0 1 .249-1.153c-.447.191-.873.38-1.34.216a1.27 1.27 0 0 1-.675-.558h.772c-.136-.148-.3-.104-.449-.114-.12 0-.239 0-.223-.176.02.027.037.056.082.03.74-.437 1.396-.175 1.993.288.12.093.158.072.247.017a2.478 2.478 0 0 1 1.152-.319c.115 0 .213-.01.2.176-.054.85-.946 1.68-1.815 1.668 0-.193.295-.176.265-.372.102.026.152-.01.152-.16a4.624 4.624 0 0 0-.15.162Zm-13.701-6.5.047.05c-.098.018.054.24-.143.176a.09.09 0 0 0-.109-.06s-.015.046 0 .05c.039.028.08.045.123 0 .041.114.118.214-.079.285a1.71 1.71 0 0 1-1.047.07c.43.64.605 1.245.188 1.895 0 0 .032.028.047.044-.202-.073-.228.218-.436.195v-.667H15.7l-.04.6c-.312-.203-.445-.668-.323-1.161.063-.275.182-.533.35-.76.115-.149.113-.242-.051-.35a2.247 2.247 0 0 1-.608-.676c-.174-.253-.071-.33.185-.35.625-.068 1.222-.034 1.706.434.047.046.11.116.174 0l-.01.009c-.108.126-.042.186.084.216Zm-.685.01-.054-.028.06.023.216.072a.095.095 0 0 0 .108.067l.02-.048-.133-.012c-.035-.13-.149-.037-.217-.07v-.004Zm13.25 2.402c-.058.126-.107.186-.21.023-.377-.591-.478-1.2-.159-1.848a3.167 3.167 0 0 1 1.027-1.13c.096-.068.174-.124.256.032.47.856.198 2.332-.558 2.9-.063.048-.143.298-.297.076l.093-.207c.052-.143.152-.278.06-.485l-.127.427c-.03.07-.057.142-.085.212Zm2.423.502-.262.054c.523-.749 1.222-.967 2.032-.877.375.045.742.148 1.086.307.071.032.197.039.115.2-.454.91-1.894 1.37-2.769.877a5.277 5.277 0 0 1-.434-.317c.06-.15.209-.092.286-.176l.707-.137a1.235 1.235 0 0 0-.761.069Zm-5.323 5.577c.075-.207-.222-.228-.197-.442.119 0 .244-.012.372-.016.122.002.245-.006.366-.026l-.714-.093c.383-.365.803-.365 1.235-.277.255.05.494.161.698.324.166.135.267.151.39-.058a1.96 1.96 0 0 1 .745-.64c.092-.054.174-.075.232.056.309.63-.084 1.786-.732 2.128a.297.297 0 0 1-.078.016c-.074-.158.134-.253.087-.41-.152.089-.127.296-.288.406-.269-.35-.286-.745-.203-1.171-.23.107-.433.215-.645.294a1.174 1.174 0 0 1-1.088-.084c-.05-.032-.112-.116-.175-.012l-.005.005ZM4.525 21.839a3.338 3.338 0 0 1-1.83.793c-.237.024-.331.008-.263-.281a3.16 3.16 0 0 1 1.06-1.775 1.7 1.7 0 0 1 .872-.351c.35-.048.487.082.478.438 0 .195-.022.39-.036.584-.114.048-.098.137-.075.23v-.009c-.105.013-.098.081-.079.157-.071-.02-.073.033-.082.08v-.008c-.07.03-.122.07-.077.156l.032-.014Zm-.514-.878c-.064 0-.08.025-.066.083-.038-.016-.068-.021-.052.037l.047-.044.066-.08a.07.07 0 0 0 .074-.075.074.074 0 0 0 .082-.064c.18-.1.328-.248.427-.428a1.183 1.183 0 0 0-.468.386c-.033.031-.076.06-.036.114-.07-.013-.09.005-.07.07l-.004.001Z"/><path fill-rule="evenodd" clip-rule="evenodd" d="M4.81 21.253c.176.075.212-.104.29-.176a1.78 1.78 0 0 1 1.429-.526c-.25.226-.501.41-.643.702l.739-.632a1.636 1.636 0 0 1-.545 1.737c-.475.39-1.047.516-1.634.582-.174.02-.215-.052-.166-.215.088-.29.164-.585.245-.878.092-.017.092-.082.076-.156v.009c.065.012.07-.037.083-.08a.19.19 0 0 0 .078-.157v.009c.054-.067.2-.104.075-.23l-.026.01Zm6.038-15.99c-.175-.296-.147-.652-.36-.937.065.306.127.61.2.967a1.882 1.882 0 0 1-.872-1.533 3.308 3.308 0 0 1 .32-1.567c.027-.065.018-.209.188-.13.942.434 1.396 2.005.819 2.876a.732.732 0 0 1-.296.324ZM4.66 10.565c0 .012.01.024.015.035.064.165.373.274.272.409-.101.135-.349-.042-.524-.109-.775-.307-1.518-1.563-1.419-2.36.014-.105.06-.11.138-.115 1.1-.069 2.173 1.03 2.112 2.163 0 .107.035.258-.068.307-.138.065-.187-.114-.277-.176a2.088 2.088 0 0 1-.196-.208c-.033-.021-.064-.072-.1 0-.01-.002.029.033.048.054Zm-.135-.23.026.077.026-.017-.056-.058c.014-.06-.03-.077-.073-.095 0-.037.016-.035 0 0 0 .037-.02.125.077.093ZM3.126 18.73l-1.031-.288c.262.212.585.276.946.407a1.944 1.944 0 0 1-1.856-.06A3.576 3.576 0 0 1 .08 17.788c-.094-.121-.122-.204.053-.265.572-.202 1.157-.318 1.745-.15.657.187 1.036.652 1.248 1.357ZM18.429 3.158a1.922 1.922 0 0 1-.033-1.695A3.31 3.31 0 0 1 19.501.175c.096-.07.174-.133.24.043.212.612.32 1.228.123 1.868a1.703 1.703 0 0 1-1.034 1.072c-.063.026-.157.058-.204.031-.096-.054-.026-.157 0-.231.063-.246.14-.488.19-.74-.223.261-.258.605-.387.94Zm8.4 1.498a1.895 1.895 0 0 0-.423.342c-.05.044-.092.148-.174.099-.082-.05-.06-.136-.032-.225a2.217 2.217 0 0 1 1.34-1.463 3.97 3.97 0 0 1 1.06-.269c.1-.01.193-.036.2.125.035.774-.728 1.846-1.475 2.067a1.824 1.824 0 0 1-1.027 0c.122-.286.4-.406.559-.628l.113-.12.054-.028-.04-.02v.053a.116.116 0 0 0-.155.067ZM10.334 7.561c-.969.728-1.857.627-2.728-.266-.185-.19-.498-.423-.437-.628.062-.206.456-.204.716-.251.742-.14 1.435-.051 2.03.463.168.143.3.323.386.526-.433-.11-.796-.287-1.245-.294l1.278.45Zm-4.49 4.462a1.96 1.96 0 0 1-.232-.497 2.395 2.395 0 0 1 .362-1.47c.09-.137 0-.193-.088-.267a2.238 2.238 0 0 1-.6-.905c-.046-.11-.05-.175.094-.205.648-.154 1.463.296 1.644.921.126.432.046.535-.4.526-.083 0-.174-.01-.29-.019.1.214.198.404.277.6a1.161 1.161 0 0 1-.13 1.15c-.169.248-.36.345-.637.166Zm-.878 5.389c-.008.067.01.132-.103.148-.583.079-1.538-.721-1.57-1.318 0-.102.046-.12.123-.14.592-.153 1.416.268 1.613.858.068.203.154.268.36.242a1.8 1.8 0 0 1 .76.072 1.22 1.22 0 0 1 .839.844.469.469 0 0 1-.131.49h.009c-.772.029-1.278-.37-1.601-1.03a.24.24 0 0 0-.307-.152c-.023-.08-.082-.086-.15-.072a.191.191 0 0 0-.22-.145c.008-.069-.034-.074-.084-.069-.009 0-.018.014-.026.021l.115.043a.27.27 0 0 0 .22.143c.028.074.085.08.153.065Zm18.05-5.749c.025.114 0 .188-.138.176-.137-.013-.307-.023-.46-.034-.147-.175-.388-.228-.524-.482-.142.331-.23.631-.438.877a1.181 1.181 0 0 1-1.105.42c-.133-.016-.255-.045-.128-.216a.497.497 0 0 0 .262-.258c-.096.075-.24.098-.255.263-.213 0-.155-.118-.111-.237.204-.569.654-.839 1.204-.946.318-.06.51-.116.332-.5-.077-.175-.15-.433 0-.552.15-.12.338.058.502.126.524.221.901.58 1.002 1.167.016.098.074.26-.144.203v-.06l-.042.016.043.037Zm-.218-.296c0 .054.018.08.073.072v.065l.039-.021-.05-.037c0-.044-.027-.074-.076-.074-.009-.023 0-.091-.052-.028l.066.023Zm3.409 9.159c.035-.047.065-.107.142-.064.214.14.41.306.584.494.105-.231-.237-.479.128-.595 0 .14.119.134.211.155.03.08.09.088.159.065-.017.038-.02.066.037.052l-.044-.047a.144.144 0 0 0-.157-.063c-.024-.116-.122-.132-.213-.156.14-.251.35-.099.524-.083.141.013.268.032.148-.175a.919.919 0 0 1-.094-.491h-.01a.642.642 0 0 1 .602.098c.064.038.113.175.225.061-.109.176.057.221.148.302 0 .023-.02.053-.01.068.174.337.059.437-.285.367a.8.8 0 0 0-.213.02c.268.227.484.509.634.828.113.214.047.264-.175.273-.628.021-1.185-.102-1.57-.747-.058.238.045.382.064.537.014.124.02.214-.16.175a.803.803 0 0 1-.716-.714.812.812 0 0 1 .041-.36Zm-2.245-1.847c0-.38.046-.74.435-.933.136-.067.299-.206.431-.106.133.1 0 .269-.012.458.236-.187.416-.394.76-.514-.37-.047-.648-.091-.816-.35-.058-.092-.143-.188-.09-.302.052-.114.174-.113.286-.12.403-.028.656.21.883.499.052.064.038.203.19.165.428-.107.304.16.236.368-.175.544-.456 1-1.047 1.191-.36.116-.594.028-.524-.42.009-.059 0-.12.014-.257-.236.224-.466.35-.75.32l.004.001ZM2.317 16.244c.164.175.331.35.492.54.05.058.153.121.089.213-.032.042-.13.043-.197.047-.75.04-1.352-.41-1.619-1.228-.089-.274-.28-.651-.104-.83.176-.179.539.054.8.156.81.316 1.263.932 1.254 1.684-.283-.152-.384-.526-.719-.58v-.021l.004.019Zm7.254 2.423.35-.369c.045-.012.122.021.106-.077.365.16-.124.376.04.544.115-.14.107-.361.26-.495.156.12.166.306.292.47 0-.315 0-.594.174-.835.037-.05.175-.11.035-.2.281.018.512.083.512.444 0 .27-.292.823-.505.783-.447-.086-.237.214-.276.373-.118.476-.457.767-.846 1.013-.147.094-.16-.055-.175-.139a2.115 2.115 0 0 1-.012-1.158.573.573 0 0 0 .045-.354Zm17.486.53c-.07 0-.195.054-.136-.113a1.04 1.04 0 0 0 .079-.35c-.075.157-.15.313-.232.489-.175-.121-.175-.31-.308-.498 0 .336 0 .614-.188.845a.35.35 0 0 1-.299.176c-.164 0-.174-.16-.195-.27a.894.894 0 0 1 .463-.951c.071-.03.071-.03.221.119-.038-.647.31-1.063.775-1.418.205-.156.281-.093.328.139.098.482.105.95-.143 1.393-.026.047-.078.103 0 .152v-.01a.205.205 0 0 0-.227.22c-.087-.04-.13 0-.151.083l.013-.006Zm-16.883-4.285c.251-.217.401-.538.728-.69.523-.243.686-.175.813.418.175-.186.276-.41.508-.5a.359.359 0 0 1 .38 0c.128.104.06.244.014.369a.91.91 0 0 1-.808.535c-.368 0 .018-.284-.162-.376-.175.67-.698.904-1.316.978-.384.047-.393.024-.264-.362.042-.124.14-.235.112-.38l-.005.008Zm9.913-9.582c.068-.46.15-.916.419-1.31.054-.078.09-.248.23-.092.535.604.982 1.535.437 2.41a.706.706 0 0 1-.107.1L21 5.926c-.1.186.01.368-.065.566-.523-.223-.719-.67-.855-1.168l.007.007Zm5.932 8.028c-.033.161.092.27.14.403a1.254 1.254 0 0 1-.13 1.172l-.21-.742c.011.33.12.553.057.784-.16.043-.236-.11-.36-.145-.012-.037-.033-.065-.071-.04l.022.084c.146.214.208.474.175.731-.021.104-.044.213-.166.263-.122.051-.206-.043-.281-.112-.304-.28-.323-.888 0-1.135.162-.121.024-.158 0-.217a1.808 1.808 0 0 1 .234-1.557c.243.053.258.364.506.37-.075.102-.02.14.077.155l.007-.014ZM21.332 3.105c-.24.02-.35.25-.552.337-.372.156-.524.097-.58-.3-.125-.761.524-1.591 1.329-1.707.155-.023.159.05.162.16.006.354-.053.707-.174 1.04-.026.08-.14.154-.044.258-.138.016-.208.079-.15.226l.009-.014Zm9.625 2.315c.016.782-.325 1.305-.965 1.5-.229.07-.339.036-.4-.238-.174-.789.416-1.531 1.112-1.919.136-.075.157 0 .19.114.044.178.065.36.063.542ZM1.506 11.477c.025-.131-.066-.35.062-.426.127-.075.31.08.453.165.51.303.913.69.992 1.324.063.527-.119.674-.611.493-.585-.214-.899-.752-.896-1.556Zm29.352-1.354c0-.737.836-1.521 1.557-1.47.09 0 .12.038.127.13.05.622-.503 1.507-1.094 1.742-.465.185-.594.096-.59-.402ZM6.11 4.628c.794.735.974 1.744.41 2.372-.017-.118-.037-.228-.061-.386-.159.175.056.321-.063.439-.888-.351-1.026-1.488-.286-2.425Zm16.543-1.574v-.58c-.141.175-.033.35-.117.526a1.288 1.288 0 0 1-.314-1.12 2.31 2.31 0 0 1 .562-1.178c.065-.077.13-.176.222-.032.473.697.709 1.786-.353 2.384Zm4.078-1.64c.738 1.021.635 1.967-.262 2.456v-.623c-.127.21-.052.381-.103.527-.6-.42-.419-1.623.365-2.36ZM10.175 5.982c-.017.151.16.176.203.325a1.298 1.298 0 0 1-1.247-.26c-.357-.314-.51-.738-.61-1.187-.034-.151 0-.214.158-.19.524.077 1.004.221 1.383.61a1.075 1.075 0 0 1 .349.853l-.243-.145c0-.05-.026-.07-.073-.074l-.073-.074-.14-.131c.023.079.049.154.147.126-.021.07 0 .093.073.072-.026.075.023.086.073.075ZM3.68 19.5l-.658.233.014.048.661-.165a1.183 1.183 0 0 1-1.058 1.031c-.415.051-1.017.08-1.14-.231-.122-.31.404-.616.739-.826a1.39 1.39 0 0 1 1.442-.09ZM8.12 5.69c-.024.198.19.308.186.5a1.218 1.218 0 0 1-1.264-.927c-.105-.361-.265-.877 0-1.063.24-.16.635.233.899.48a1.453 1.453 0 0 1 .497 1.404c-.186-.087-.174-.31-.331-.377l-.136-.232h-.013.018a.197.197 0 0 0 .145.214Zm-.153 14.401c.035.116-.108.165-.035.26.107-.04.088-.202.215-.218.501.799.082 1.895-.833 2.2-.108.037-.15.014-.192-.08-.314-.713.103-1.81.845-2.162Zm-.117.369-.068.084c.021.009.053.03.058.024a.28.28 0 0 0 .052-.08s-.026-.018-.037-.028H7.85Zm-5.675-6.14.257.417c-.524.031-.922-.098-1.222-.476a2.112 2.112 0 0 1-.396-1.242c0-.135.022-.219.174-.175.688.175 1.646.812 1.477 1.688-.148 0-.128-.246-.3-.206.04-.075-.018-.116-.058-.161l-.11-.09v.048c.028.038.058.08.112.038-.035.074.002.121.066.158Zm3.598-6.346c.035.175.089.307-.204.268a1.608 1.608 0 0 1-1.019-.624 1.623 1.623 0 0 1-.312-1.157c.016-.1.03-.143.154-.133.709.058 1.52.85 1.54 1.514 0 .116.045.28-.163.135-.022-.077-.036-.166-.153-.144.056-.082-.014-.114-.063-.154l-.07-.075-.071-.074-.011-.01h.016c0 .05.017.085.078.071-.012.06 0 .1.072.076-.058.084 0 .122.064.156.02.072.027.17.142.15Zm-3.83 1.703c.63-.01 1.182.16 1.527.742.175.295.12.432-.2.539-.744.247-1.71-.307-1.9-1.09-.031-.124 0-.189.133-.19h.44Zm1.26.877a.294.294 0 0 0 .313.134c-.124-.08-.196-.176-.32-.127-.054-.145-.164-.149-.312-.114l.32.107Zm22.154-5.208c-.028-.269.13-.485.05-.73-.07.261-.139.526-.212.788-.56-.518-.599-1.199-.128-1.862.154-.22.35-.547.563-.509.213.039.22.425.277.672.16.702-.035 1.299-.55 1.64Zm7.25 7.286c.28-.051.54.037.825-.137h-.937c.732-1.002 1.681-.702 2.378-.186.077.06.174.12.043.223-.626.484-1.684.736-2.31.1Zm-27.37-.736c-.257.025-.494-.147-.738-.057l.764.2a1.204 1.204 0 0 1-1.447.35 2.197 2.197 0 0 1-.848-.626c-.063-.072-.142-.138-.016-.237.553-.438 1.777-.286 2.25.288.021.016.021.044.035.082Z"/><path fill-rule="evenodd" clip-rule="evenodd" d="M28.454 19.78v-.036c0-.207-.258-.42.016-.62.242-.175.494-.075.717.013.492.195.782.602.997 1.068.077.176.017.216-.145.227-.46.028-.899-.02-1.28-.316-.045-.035-.085-.133-.174-.044.056-.154-.06-.221-.149-.302l.018.01Zm-.887-5.089c.087-.202-.124-.23-.204-.312-.175-.175-.175-.29.042-.428.564-.372 1.527-.258 1.995.239.138.147 0 .175-.073.24a1.827 1.827 0 0 1-1.545.328c-.054-.09-.103-.193-.227-.075l.012.008Zm-3.006-5.9-.082-.165c.41-.701 1.035-.935 1.805-.866.103.01.259-.044.203.175-.198.79-1.084 1.28-1.798.988-.072-.03-.133-.058-.133-.148l.054-.036-.047-.013-.002.065Zm-.451.806c.118.143.193-.015.266-.051a2.24 2.24 0 0 1 1.248-.213c.095 0 .194 0 .163.167-.124.639-.936 1.184-1.6 1.061-.366-.066-.452-.252-.27-.575.045-.079.154-.133.119-.25.09-.015.174-.032.08-.15l-.005.01Zm-4.246-.957c-.222-.05-.35.16-.543.2-.37.081-.503-.015-.479-.398.034-.572.632-1.284 1.184-1.42.154-.036.192.02.199.162.028.465-.02.907-.318 1.29-.036.047-.136.084-.047.175l.004-.009Zm4.749 12.097c0-.435.175-.546.566-.367.508.23.96 1.026.9 1.58-.011.117-.066.136-.163.138-.62.002-1.303-.698-1.303-1.351Zm-2.138-1.554h-.01c.794.324 1.078.954 1.066 1.771 0 .197-.031.262-.248.176-.667-.25-1.087-.753-1.082-1.328a.706.706 0 0 1 .274-.62Zm.529-.793h-.047c-.175.012-.24-.065-.24-.255 0-.733.455-1.088 1.073-1.307.194-.064.4-.084.604-.06a2.162 2.162 0 0 1-.587 1.264 1.105 1.105 0 0 1-.803.358Zm-9.24 1.031c.01.702-.698 1.404-1.396 1.377-.09 0-.124-.03-.138-.12-.08-.552.513-1.434 1.082-1.6.33-.097.449-.01.452.343ZM17.938 4.44c.104-.247.257-.47.45-.654.948-.351 1.01-.351 1.514-.29-.154.825-.766 1.365-1.466 1.302-.241-.02-.456-.075-.498-.358Zm-5.52 14.525c.016.716-.77 1.404-1.516 1.325-.109-.011-.145-.037-.138-.153.033-.58.609-1.31 1.152-1.448.303-.078.495.023.502.276Zm-3.864-1.402c.049.15.1.299.145.45.08.264-.037.394-.294.417-.574.054-1.443-.646-1.536-1.228-.031-.197.103-.153.2-.162a1.703 1.703 0 0 1 1.492.527l-.007-.004ZM18.678 7.096c-.076-.877.381-1.403 1.109-1.754.098-.047.192-.103.295-.014a4.62 4.62 0 0 1-.065.877 1.229 1.229 0 0 1-.925.942.47.47 0 0 1-.412-.052l-.002.001Zm-6.982-3.35c.013-.43.158-.844.415-1.186.05-.072.088-.176.22-.065.524.449.573 1.505.07 1.995-.25.24-.349.226-.524-.072-.127-.2-.19-.435-.181-.672Zm3.025 15.961c.152-.098.297-.209.454-.295.251-.138.407-.042.475.227.174.678-.44 1.545-1.137 1.622-.185.021-.153-.098-.16-.201a2.66 2.66 0 0 1 .228-1.137c.067-.032.109-.076.077-.155.072.02.075-.031.08-.079l-.017.018Zm18.052-1.567.523.386c.313.394.467.891.432 1.393 0 .113.014.218-.175.176-.635-.128-1.183-.798-1.156-1.421.018-.253.105-.456.376-.534ZM14 10c-.01-.242-.02-.433-.028-.65-.103.192-.024.383-.073.562-.524-.4-.466-1.452.206-2.154.733.703.709 1.632-.105 2.242Zm-9.912 9.203c-.127-.03-.253-.06-.26-.23-.07-.01-.08-.175-.192-.076v.008c.11-.09-.01-.15-.04-.209a2.147 2.147 0 0 1-.255-.987c0-.414.012-.427.398-.24.735.35 1.062.913.906 1.538-.045.175-.11.254-.272.109 0-.048 0-.091-.073-.072.012-.069 0-.126-.074-.15 0-.018-.012-.038-.019-.057l-.024.031.048.022a.116.116 0 0 0 .074.147c0 .049.014.084.073.073.007.364-.208.013-.29.093Zm.032-.526s-.014.018-.014.028a.07.07 0 0 0 .012.028s.012-.017.012-.026a.134.134 0 0 0-.01-.035v.005Zm16.632-4.291-.206.295c-.38.238-.754.484-1.243.324a.288.288 0 0 1-.199-.417c.175-.567 1.21-1.062 1.769-.877.129.043.09.117.07.198-.037.137-.163.247-.128.405-.065-.016-.066.03-.063.072Zm1.674-.13c.152-.203.388-.296.589-.438.2.507.349 1.02.146 1.565-.106.296-.28.605-.613.56-.25-.034-.307-.371-.375-.611-.119-.402.124-.727.253-1.076ZM10.964 6.56c-.127-.176-.038-.386-.045-.58.276-.394.524-.801.98-1.038.204-.109.287-.116.324.142.122.844-.21 1.507-.873 1.686-.085.025-.256.144-.218-.11l.22-.44a.186.186 0 0 1 0-.034v-.028.068a.35.35 0 0 0-.208.44c-.08 0-.202.073-.18-.106ZM30.2 19.044c-.023-.21.14-.156.242-.158.578 0 1.34.637 1.467 1.21.027.127-.027.144-.117.176-.699.2-1.558-.277-1.708-.954-.022-.1-.145-.286.12-.274.088.128.238.156.36.228l.158.058v.018-.011l-.175-.058a.351.351 0 0 0-.347-.235Zm.44-7.956c.151-.032.308-.032.46 0a2.032 2.032 0 0 1 1.27 1.209c-.962.35-1.96-.16-1.933-.999.192-.033.32.176.506.142 0 .074.065.06.1.085.035.024.04 0 .017-.013a.826.826 0 0 0-.122-.066.815.815 0 0 0-.333-.21c-.192-.1.085-.085.035-.148ZM12.626 17.56l-.567-.267c.187-.24.404-.456.646-.64a1.357 1.357 0 0 1 1.344-.176c-.037.134-.197.083-.25.176.112.063.205-.05.313-.037 0 .48-.442.877-1.01.939-.158.017-.317.005-.476.005Zm1.048-.853a.228.228 0 0 0-.063 0c-.037 0-.039.02 0 .035a.038.038 0 0 0 .03 0 .23.23 0 0 0 .033-.035Zm10.383-1.121c-.06-.175.106-.277.024-.428l-.202.477a1.364 1.364 0 0 1 .523-2.105c.063-.025.1-.035.15.028.39.51.105 1.695-.495 2.028Zm.103-.626a.3.3 0 0 1-.009-.03.204.204 0 0 0 0 .045.094.094 0 0 0 0 .03c.003-.016.005-.031.009-.045Zm-11.637.76c.219.026.425-.115.648-.06-.175.61-.752.931-1.445.779-.23-.051-.587-.067-.63-.286-.044-.22.275-.367.47-.504.554-.384 1.093-.423 1.544-.107-.204.063-.417.056-.582.176l-.03.014-.025.02.05-.033Zm9.545-3.04a1.244 1.244 0 0 1-.539 1.03c-.272.176-.442.108-.5-.21a1.2 1.2 0 0 1 .82-1.318c.205-.066.225-.033.22.499Zm11.797-4.434c-.103.526-.263.89-.686 1.08-.316.14-.47.027-.436-.312a1.103 1.103 0 0 1 .995-.877c.159.005.127.109.127.109ZM20.874 1.105c-.047.176 0 .427-.237.48-.19.048-.323-.134-.433-.278a1.128 1.128 0 0 1-.02-1.15c.067-.097.12-.094.198-.018.28.247.457.593.492.966Zm-7.49.325c.332.649.267 1.144-.147 1.449-.232.175-.349.079-.426-.153-.136-.417.075-.9.573-1.296Zm1.704-.026a.764.764 0 0 1-.339.645c-.243.176-.391.133-.46-.158a1.343 1.343 0 0 1 .477-1.203c.116-.08.149-.025.185.063.09.206.136.428.137.653Zm14.796 2.575c-.026.28-.065.55-.318.714a.174.174 0 0 1-.232-.016.838.838 0 0 1-.22-.782c.068-.292.225-.702.468-.667.242.035.268.467.302.75Zm3.257 10.001c-.145-.047-.375 0-.44-.213-.064-.214.119-.351.278-.46.326-.216.688-.202 1.047-.123.094.021.147.05.09.176a1.179 1.179 0 0 1-.975.62ZM18.038.658a.846.846 0 0 1-.391.791c-.201.13-.302.067-.374-.142-.136-.388.103-1.053.45-1.274.114-.072.15-.017.189.069.081.174.124.364.126.556Zm13.829 6.247c-.02.3-.068.567-.306.74a.174.174 0 0 1-.26-.03.838.838 0 0 1-.195-.79c.075-.274.228-.678.452-.646.276.04.258.468.309.726Zm-7.983-4.559c0-.248.02-.604.208-.653.188-.05.349.272.471.482.036.064.065.131.087.2a.743.743 0 0 1-.057.702.19.19 0 0 1-.25.08.835.835 0 0 1-.45-.625 1.582 1.582 0 0 1-.01-.186Zm-2.413.547c.175-.05.226-.35.384-.277.16.073.175.35.208.56a.881.881 0 0 1-.445.898c-.152.094-.234.06-.305-.106-.128-.294-.03-.577.02-.863a.233.233 0 0 0 .15-.226l-.012.014Zm-5.935 15.325c-.478.096-.956.157-1.433-.013.086-.27.368-.324.545-.494a3.79 3.79 0 0 1 .422-.083c.512-.037.608.091.466.59Zm-.384-.29c.068.014.131.02.15-.07l.13-.021c-.011-.014-.018-.04-.03-.04a.076.076 0 0 0-.063.01.075.075 0 0 0-.032.056c-.06 0-.125 0-.148.07-.014.016-.087 0-.03.051a.523.523 0 0 0 .028-.056h-.005Zm-.155.118-.021-.01v.015l.02-.005Zm13.166.189c-.273-.047-.437-.175-.418-.484.02-.309.334-.718.583-.78.114-.029.116.032.135.108.057.276.017.564-.112.814-.026.063-.166.105-.044.203v-.01c-.027 0-.059-.014-.082 0-.049.024 0 .053 0 .079-.028 0-.045-.05-.085-.01-.04.038 0 .057 0 .085l.023-.005ZM23.896 6.756v-.024h.024c.093.049.124.012.116-.083.309-.056.607-.209.934-.093.089.032.216.03.117.176a.991.991 0 0 1-.683.501.476.476 0 0 1-.588-.365c.1.016.127-.026.08-.112ZM6.738 13.43l-.3-.304c0-.333-.154-.671.052-1.03.318.185.592.402.603.822.005.252-.077.454-.355.512Zm20.056 1.495c.129 0 .174-.048.1-.164h-.011c.234.06.452-.066.68-.061.048.112.13.116.228.075.073.202.338.218.405.425-.584.356-.847.307-1.402-.275ZM6.227 7.632c-.027-.225.073-.258.27-.14.3.175.575.382.594.776.01.216-.06.325-.306.244-.342-.112-.557-.422-.558-.88Zm10.007 3.584-.083-.128c-.042-.23.04-.453.049-.681.207-.139.309-.402.563-.486.285.605.098 1.056-.529 1.295Zm-5.332-3.232a1.359 1.359 0 0 1 .48-1.052c.433.666.267 1.205-.407 1.345.085-.13.01-.217-.077-.301l.004.008Zm19.191 10.613a.29.29 0 0 1-.25.054c-.228-.304-.111-.683.282-.877.183-.09.448-.232.572-.091.124.14-.084.364-.174.545-.06.118-.219.154-.241.3a.162.162 0 0 0-.189.069Zm-23.191.234h.36c.236.376-.018.837-.524.943-.119.024-.28.112-.37-.013-.09-.124.05-.222.084-.337.071-.26.356-.357.45-.593Zm7.665-8.491c.133-.065.018-.147 0-.215a.978.978 0 0 1 .021-.54c.09-.211.21-.548.404-.494.23.063.254.418.225.67a.595.595 0 0 1-.404.563.588.588 0 0 1-.242.027l-.004-.01Z"/><path fill-rule="evenodd" clip-rule="evenodd" d="M14.581 19.923c-.21 0-.336.195-.534.245-.174.043-.256.055-.223-.163a1.105 1.105 0 0 1 .39-.758c.116-.09.238-.175.4-.098.163.077.083.232.096.351 0 .067-.059.14.011.203-.094-.043-.075.03-.08.08-.063.033-.147.056-.077.154l.017-.014Zm-5.584-.702c.307.107.382.332.314.628a.937.937 0 0 1-.583.648c-.12.052-.112-.095-.119-.176-.036-.367.014-.702.316-.961.046-.037.107-.063.077-.14l-.005.001Zm22.685-1.737c.24.216.487.427.576.76.036.137.026.217-.143.193a1.046 1.046 0 0 1-.714-.33.515.515 0 0 1-.142-.509c.074-.186.281-.075.428-.11l-.005-.004ZM3.016 14.921c.294.026.597.102.786.405.107.176.089.29-.136.351-.384.098-.913-.216-.972-.593-.02-.137.038-.172.322-.163Zm18.169 4.712c-.016-.205.107-.263.297-.215.307.077.665.654.606.966-.013.067-.032.098-.114.1-.37.002-.801-.445-.789-.85ZM17.282 5.539c.246-.297.5-.58.939-.616a.98.98 0 0 1-.288.867.524.524 0 0 1-.524.175c-.192-.07-.07-.28-.118-.423l-.01-.003Zm12.406 6.24a.772.772 0 0 1-.686-.351.155.155 0 0 1 .047-.226.736.736 0 0 1 .698-.05.193.193 0 0 1 .034.011c.174.109.495.198.45.4-.045.202-.361.191-.543.216Zm-1.1.958c-.085.2-.317.137-.448.256-.316-.567-.187-.963.436-1.3.19.272.023.591.112.877l-.009-.014c-.108.021-.138.076-.09.18ZM5.097 19.872c.046-.25-.197-.369-.262-.575-.064-.207-.017-.294.203-.253.333.061.632.175.752.54.039.114.096.237 0 .351-.096.114-.221.056-.338.02-.065-.022-.133-.064-.206-.016h.008c-.008-.11-.052-.15-.15-.074l-.007.007Zm20.973-3.484.083-.067c.232-.039.452.051.68.065.13.137.263.27.392.41.093.099.101.176-.05.24a.765.765 0 0 1-.992-.29.776.776 0 0 1-.113-.358ZM9.357 3.82c-.072.198 0 .526-.318.526-.258 0-.325-.288-.35-.527-.03-.266.235-.814.332-.745.24.172.282.461.336.745Zm11.125 12.557c.174-.472.349-.935.76-1.266.163.536.158 1.042-.29 1.543v-.726h-.034l-.092.725c-.179-.035-.238-.186-.344-.276Zm-10.303-1.465c-.251.242-.524.446-.896.437-.082 0-.21.04-.174-.137.042-.3.468-.701.771-.745.416-.053.26.261.302.45l-.003-.005Zm13.637 4.727c.054.094.202.028.244.143.21.2.335.475.35.765 0 .083.02.176-.123.165a.93.93 0 0 1-.766-.773c-.002-.211.06-.335.295-.3ZM18.39 7.095c.107.094.065.193.01.291a.476.476 0 0 1-.72-.147c-.147-.218-.35-.527-.15-.716.159-.148.434.107.614.266.09.095.173.197.246.306Zm-7.567 9.826-.206.056-.524-.526v-.139c0-.149-.174-.34-.014-.431.161-.091.35.06.493.154.361.232.45.58.251.886Zm-5.099-.923a.963.963 0 0 1 .775.304c.075.09.175.175.108.323-.056.11-.174.124-.28.135-.35.033-.79-.26-.863-.597-.066-.305.208-.075.26-.165Zm13.703-2.622.1-.234c.064 0 .11-.01.108-.087h-.012c.248-.04.447-.234.712-.225.106 0 .187-.014.16.147a.979.979 0 0 1-.64.728c-.265.055-.47.021-.428-.33Zm4.459-.378c.041-.072.106-.135.096-.228a1.136 1.136 0 0 1 1.264 0c-.414.55-.79.607-1.36.228ZM12.525 8.663c.113.113.258.207.229.402-.163.265-.416.223-.644.156a.882.882 0 0 1-.55-.503c-.056-.116.076-.135.153-.14.248-.013.498-.011.747-.015-.057.086.025.077.065.1Zm13.429 4.554c-.026-.35-.017-.701.267-1 .206.195.341.454.383.736a.572.572 0 0 1-.156.54c-.206.175-.267-.147-.43-.135.02-.076.013-.135-.076-.155l.012.014ZM8.407 13.05c.09.08.236.053.31.164a.454.454 0 0 1-.359.482.974.974 0 0 1-.838-.114c-.129-.075-.028-.138.03-.193a1.23 1.23 0 0 1 .857-.34Zm6.246 4.67h-.723c-.213 0-.202-.115-.096-.258a1.223 1.223 0 0 1 1.048-.481.42.42 0 0 1-.06.54c-.06.063-.185.08-.166.207l-.003-.009Zm9.55-9.15a.275.275 0 0 1-.145.23c-.286.154-.401-.068-.485-.256a.987.987 0 0 1 .065-.842c.064-.132.125-.113.213-.02.227.24.353.558.352.888Zm-1.785 3.235c.247.164.553.256.684.565.06.142.115.288 0 .414-.115.127-.253.035-.374-.009a.95.95 0 0 1-.523-.817c0-.195.125-.132.218-.147l-.005-.006Zm.382-1.63c0 .107-.08.2-.295.146-.363-.091-.683-.616-.59-.974.019-.068.035-.098.115-.093.314.013.773.51.77.921Zm-.705 5.571c0 .243-.042.479-.259.619a.175.175 0 0 1-.25-.023.704.704 0 0 1-.11-.702c.084-.21.194-.526.416-.484.183.039.176.376.203.59Zm-1.793-4.813c.106-.484.476-.645.902-.73.091-.019.201-.047.192.123a.921.921 0 0 1-.74.765.314.314 0 0 1-.36-.166l.006.008Zm11.755 7.92c-.46.247-.772.231-1.01-.039-.193-.216-.16-.328.12-.39.31-.068.562.048.89.429ZM24.92 1.818c.01-.176 0-.443.161-.49.185-.054.25.214.35.351l.014.033a.637.637 0 0 1 0 .63.14.14 0 0 1-.16.082.14.14 0 0 1-.057-.027.648.648 0 0 1-.309-.58Zm-10.494 1.24c0 .133 0 .258-.115.316-.115.058-.227-.035-.323-.107a.526.526 0 0 1-.197-.307c-.048-.192-.19-.477.01-.563.2-.086.386.149.511.338a.538.538 0 0 1 .114.323Zm18.425 3.647c-.012.228-.049.428-.25.553a.118.118 0 0 1-.163-.014.63.63 0 0 1-.16-.61c.056-.202.175-.492.337-.467.222.031.203.344.236.538Zm-21.068.663c.026-.143-.054-.364.126-.414.141-.038.234.151.324.262a.636.636 0 0 1 .091.679.21.21 0 0 1-.23.14c-.098 0-.222-.01-.224-.135 0-.18-.15-.344-.087-.532ZM7.76 12.47c0 .232-.137.263-.317.197-.319-.12-.452-.393-.548-.702-.026-.082-.01-.133.093-.15.323-.05.77.322.771.655Zm11.068-6.82a.663.663 0 0 1-.324.6.15.15 0 0 1-.22-.048c-.138-.2-.082-.414 0-.623a.266.266 0 0 1 .016-.032c.097-.149.188-.4.349-.35.16.049.159.296.18.452Zm11.05 6.28c.13.02.336-.027.384.11.05.137-.132.264-.247.351a.638.638 0 0 1-.746.065.146.146 0 0 1-.078-.097.148.148 0 0 1 .024-.122c.142-.248.39-.29.663-.307ZM11.87 2.198a.657.657 0 0 1-.323.66.137.137 0 0 1-.192-.051c-.155-.216-.097-.435 0-.654a.274.274 0 0 1 .018-.032c.09-.142.187-.375.333-.342.173.044.145.296.164.42Zm13.402 4.828c.089-.019.134.013.148.11.042.304-.307.741-.616.77-.23.02-.29-.102-.234-.294.103-.345.393-.479.702-.586ZM12.621 5.088c.24.256.387.505.323.82-.035.16-.094.36-.302.35-.208-.01-.23-.2-.258-.35a1.103 1.103 0 0 1 .237-.82Zm7.604 10.098c-.178.327-.396.63-.648.904-.115-.043-.275.045-.349-.123a.39.39 0 0 1 .126-.425 1.048 1.048 0 0 1 .871-.356ZM6.146 18.972c0 .017 0 .035-.008.053-.377.07-.723.033-1.011-.258-.122-.125-.114-.176.056-.251.485-.191.897-.004.963.456Zm22.802-6.582c.01-.037.033-.067.068-.04.035.025 0 .057 0 .087l-.068-.047Zm-9.379-1.399c0 .327-.136.527-.498.493a.881.881 0 0 1-.75-.617c-.039-.207-.268-.09-.399-.155-.13-.065-.143.032-.127.137.017.097.027.195.03.293a3.02 3.02 0 0 1-.025.512 1.108 1.108 0 0 1-.787.878c-.093.031-.253.072-.3-.046a1.307 1.307 0 0 1 .092-1.167 1.9 1.9 0 0 1 .559-.617c.152-.107.199-.186.028-.325-.2-.161-.506-.416-.428-.588.112-.24.494-.163.77-.194.35-.04.64.175.972.208l-.014.01c-.03.08.023.08.077.08 0 .063.037.093.082.12.073-.038.115-.01.135.068-.03.077-.021.13.08.116-.047.094-.1.175-.227.152-.12-.175-.328-.12-.489-.19.152.091.32.151.494.176.054.046.16.105.15.133-.054.204-.312.144-.43.31.286-.036.575.026.82.176.05.037.1.176.195.042l-.01-.005Zm-5.902 3.262c.872-.428 1.618-.334 2.084.277-.23.067-.44-.12-.644-.028.236.043.466.113.686.208-.534.527-1.02.527-1.807.011l-.32-.468Zm3.027-.877a.722.722 0 0 1 .188-.393c.117-.137.262-.385.402-.313.14.072.157.351.125.565-.064.425-.302.625-.705.625a.417.417 0 0 1-.01-.484Zm-1.756 2.647c.523-.158 1.02-.175 1.515.277l-.761.04c.26.064.523.013.776.123a.812.812 0 0 1-.277.313c-.48-.158-.924-.355-1.253-.753Zm-2.27-2.705a1.08 1.08 0 0 1-.146-1.162c.038-.086.055-.2.197-.114a.782.782 0 0 1 .256 1.023.78.78 0 0 1-.256.282.627.627 0 0 0-.05-.03Zm-2.606 5.454c-.164-.175.325-.384-.04-.544l.04.544Zm.761-1.063c.133.09 0 .149-.035.2-.175.24-.175.526-.175.835l.21-1.035Zm16.376 1.414a.21.21 0 0 1 .063-.163.206.206 0 0 1 .164-.056c-.02.128-.12.175-.227.219ZM10.914 8.935c-.096-.044-.2-.084-.145-.226a.221.221 0 0 1 .145.226Zm-.014-.96c.087.085.162.176.077.302a.302.302 0 0 1-.077-.302Zm6.267-.08c-.126-.034-.192-.093-.09-.22.112.044.056.151.09.22Zm12.926 10.701a.163.163 0 0 1 .194-.071c-.031.119-.127.056-.194.072Zm-26.457.3c.112-.094.122.067.192.078-.1.061-.146-.002-.192-.078Z"/><path fill-rule="evenodd" clip-rule="evenodd" d="M27.058 19.2c.02-.08.064-.123.151-.084-.038.06-.054.15-.151.084Zm1.53-6.463c-.047-.098-.017-.16.091-.176.074.106-.063.114-.09.176ZM5.104 19.86c.098-.076.142-.037.15.073-.066.01-.13.018-.15-.073ZM24.113 9.595c.1.117.01.135-.08.149-.032-.08.02-.116.08-.15Zm2.784 5.161c.066.116.03.175-.1.163.042-.047.007-.145.1-.163Zm-19.799-.659c-.068 0-.149.036-.154-.08.067-.003.133-.008.154.08Zm16.798-7.341c.047.09.02.128-.08.114l.08-.114Zm.147-.114c.008.095-.023.132-.116.083l.116-.083Zm-4.984 3.548c-.101.014-.11-.04-.08-.116l.08.116Zm-.206-.19c-.046-.026-.09-.056-.082-.12.064.015.145.018.082.12Zm.782 3.054c0 .078-.044.095-.108.088.024-.035.024-.123.108-.088Zm8.595 5.107c0-.026-.055-.054 0-.079.023-.01.055 0 .083 0 .005.067-.034.086-.082.08Z"/><path fill-rule="evenodd" clip-rule="evenodd" d="M28.155 18.235c0-.028-.048-.046 0-.086.05-.04.058 0 .086.01 0 .06-.033.087-.085.076ZM18.77 9.891c-.055 0-.107 0-.078-.08.08-.027.103.003.077.08Zm-8.745 8.33c.016.098-.06.065-.106.077l.106-.077Zm10.727-3.835c0-.047 0-.093.068-.07.006.056-.028.07-.068.07Zm-8.227-5.723c-.04-.023-.122-.014-.073-.103.068.003.087.037.073.103Zm3.722 6.657.033.09-.046.029a1.427 1.427 0 0 0-.06-.083l.073-.037ZM8.438 9.235c.014.018.037.033.039.051.002.018-.016.037-.026.056a.477.477 0 0 1-.055-.067l.042-.04Zm-.525 1.456a.087.087 0 0 1 .053.1.088.088 0 0 1-.018.037l-.093-.074.058-.063Zm.941-1.093L8.8 9.561l.049-.014v.056l.005-.005Zm22.241 6.793a.584.584 0 0 1-.349.286c.112-.175.19-.268.316-.312l.033.026Zm-.023-.026c.044-.084.082-.175.21-.175a.35.35 0 0 1-.175.201l-.035-.026ZM16.51 4.27a.375.375 0 0 1 .222.21.593.593 0 0 1-.047.048.464.464 0 0 1-.203-.237l.028-.02Zm-.18-.124c.116-.037.152.037.175.126l-.028.02a.216.216 0 0 1-.145-.15l-.002.004Zm-.956.386c.04.028.079.058.117.087-.018.018-.033.037-.05.056l-.15-.071.083-.072Z"/><path fill-rule="evenodd" clip-rule="evenodd" d="M15.49 4.62c.029.034.132.033.083.1-.049.066-.096 0-.133-.045l.05-.056Zm.33.262-.066-.047c.04-.044.07-.016.1.016l-.033.031Zm.989-.184-.063-.08.052-.053.065.08-.054.053Zm-.063-.08-.061-.09a.591.591 0 0 0 .047-.047l.066.084c-.017.016-.04.035-.052.053Zm-.409-.476-.045-.042h.045v.053-.01Zm11.52 4.57a.9.9 0 0 0-.028.058.497.497 0 0 1-.02-.044h.053l-.005-.014ZM13.276 6.335c.056.063.11.158.031.202-.079.044-.049-.102-.096-.142l.065-.06Zm15.074.216c.043-.047.1-.072.144-.02.044.053 0 .083-.054.099l-.09-.079Zm-8.116 3.57c-.039-.044-.013-.082.014-.117 0 0 .026 0 .028.012a.071.071 0 0 1 0 .063.07.07 0 0 1-.051.037l.009.005ZM8.482 14.832c-.016.15-.154.138-.237.198a.325.325 0 0 1 .24-.193l-.003-.005Zm.482 2.1.085.09c-.059.045-.1.017-.137-.03l.052-.06Zm-.334-2.171c-.026.074-.071.107-.148.07.026-.076.072-.108.15-.07H8.63Zm.641 2.457c-.028-.016-.071-.03-.04-.069.01-.012.061 0 .093.014l-.053.055Zm15.501-5.925c.021.033.01.054-.026.061 0 0-.019 0-.03-.01l.062-.047-.006-.004ZM17.655 3.49a.552.552 0 0 0-.033.054c-.01-.021-.028-.04-.028-.061 0-.022.02-.037.03-.057l.032.064Zm13.213 10.905c.042-.048.086-.095.147-.176 0 .15-.05.186-.152.16l.005.016Zm-14.164-6.42-.216-.071c.068.033.174-.06.216.073v-.002Zm-.216-.071-.06-.023.054.028.006-.005Z"/><path fill-rule="evenodd" clip-rule="evenodd" d="m16.699 7.982.132.013c0 .016-.01.045-.019.047a.094.094 0 0 1-.108-.067l-.005.007Zm.377.136c-.042.042-.084.024-.122 0v-.05a.089.089 0 0 1 .108.06l.014-.01Zm12.741 1.977.128-.427c.09.207 0 .351-.061.485l-.067-.058Z"/><path fill-rule="evenodd" clip-rule="evenodd" d="m29.884 10.153-.093.207-.06-.053.086-.212.067.058Zm2.271.656c.24-.102.507-.124.76-.065l-.706.137-.054-.072ZM4.121 20.774c.12-.168.282-.3.468-.386-.1.18-.248.328-.427.428l-.04-.042Zm.695.476c.124.125-.02.162-.075.229-.028-.093-.038-.182.075-.23Z"/><path fill-rule="evenodd" clip-rule="evenodd" d="M4.746 21.47a.192.192 0 0 1-.078.156c-.02-.075-.026-.143.078-.156Zm-.148.22c.016.073.016.138-.077.156-.045-.092.007-.127.077-.157Zm-.513-.802c-.04-.055 0-.083.036-.114l.04.042a.074.074 0 0 1-.081.065l.005.007Zm-.14.154c-.014-.058 0-.09.067-.082l-.067.08v.002Zm-.005-.007-.047.044c-.016-.058.014-.053.052-.037l-.005-.007Z"/><path fill-rule="evenodd" clip-rule="evenodd" d="M4.673 21.618c-.012.044-.017.093-.082.08.009-.047.01-.1.082-.08Zm-.593-.741a.07.07 0 0 1-.074.074c-.016-.065.009-.09.074-.072v-.002Zm.445-10.542c-.096.032-.091-.044-.084-.093.007-.049.023-.035 0 0 .044.018.087.035.073.095l.01-.002Zm.135.23c-.018-.021-.057-.056-.051-.063.034-.063.066-.013.099 0a.35.35 0 0 1-.047.063Zm-.139-.228.056.058-.026.017-.026-.077-.004.002Zm22.454-5.754-.113.119-.033-.046a.118.118 0 0 1 .108-.077.12.12 0 0 1 .045.009l-.007-.005Z"/><path fill-rule="evenodd" clip-rule="evenodd" d="M26.982 4.588v-.053l.04.02-.054.028.014.005ZM4.816 17.34a.268.268 0 0 1-.22-.147.19.19 0 0 1 .22.146v.001Zm-.22-.147-.115-.042s.018-.02.026-.021c.05 0 .093 0 .084.068l.005-.005Zm.215.154c.068-.014.127 0 .15.072-.068.014-.126 0-.15-.072Zm15.421-4.94c.014-.165.159-.188.255-.263a.497.497 0 0 1-.262.258l.007.005Zm2.636-.961.05.037-.038.02v-.063l-.012.006Zm-.07-.079-.06-.023c.057-.063.044 0 .053.028l.007-.005Zm.218.296-.049-.038.042-.016v.06l.007-.006Zm-.225-.291c.049 0 .07.03.075.074-.056 0-.078-.02-.073-.074h-.002Zm5.663 8.402c.089.08.204.147.148.301-.1-.075-.265-.124-.148-.301Zm-1.182.738c-.092-.02-.204-.015-.211-.154.09.023.188.038.213.154h-.002Zm-.005.014a.143.143 0 0 1 .157.064c-.07.022-.13.015-.159-.065l.002.001Z"/><path fill-rule="evenodd" clip-rule="evenodd" d="m27.424 20.582.044.048c-.058.014-.054-.014-.037-.053l-.007.005ZM2.317 16.244l-.008-.016.004.022.004-.006Zm23.632-3.034c.089.02.096.08.077.155-.098-.016-.152-.053-.077-.154Zm-.482 1.664c0-.028-.03-.08-.023-.085.039-.024.06 0 .072.04l-.049.045ZM21.471 2.886a.234.234 0 0 1-.15.226c-.052-.147.018-.21.15-.226ZM10.03 5.835c-.097.028-.124-.047-.146-.126l.14.131.006-.005Zm.067.079c.047 0 .075.025.073.074-.06.01-.1 0-.072-.076l-.001.002Zm-.073-.074.073.074c-.07.021-.095 0-.073-.072V5.84ZM8.12 5.69a.196.196 0 0 1-.135-.229l.136.234v-.006Zm-.265 14.77c.016.01.042.026.042.028a.28.28 0 0 1-.052.08l-.058-.024.068-.084Zm-5.738-6.3c-.055.042-.085 0-.113-.039-.009-.01 0-.032 0-.047l.11.09.003-.004Z"/><path fill-rule="evenodd" clip-rule="evenodd" d="M2.175 14.32c-.064-.037-.101-.085-.06-.16.04.045.099.086.058.161l.002-.002Zm3.598-6.346c-.115.019-.122-.072-.148-.146.116-.023.13.067.153.144l-.005.002Zm-.149-.146c-.064-.033-.122-.072-.064-.156.047.04.117.072.06.154l.004.002Zm-.212-.303-.02-.006.013.011.007-.005Zm.071.079.07.075c-.077.025-.084-.016-.072-.075h.002Z"/><path fill-rule="evenodd" clip-rule="evenodd" d="m5.412 7.53.078.074c-.061.014-.075-.021-.079-.072V7.53Zm-2.209 3.026-.32-.107c.15-.035.26-.031.313.114l.007-.007Z"/><path fill-rule="evenodd" clip-rule="evenodd" d="M3.196 10.563c.124-.047.196.048.32.127a.292.292 0 0 1-.313-.134l-.007.007Zm24.593 4.2c-.098.04-.175.037-.227-.075.124-.118.173-.014.227.075Zm-3.228-5.972V8.74l.047.012-.054.037.007.003Zm-9.987 11.137c-.07-.098.014-.121.077-.154.032.079-.01.122-.077.154Z"/><path fill-rule="evenodd" clip-rule="evenodd" d="M14.646 19.78c0-.048-.014-.122.08-.078-.005.047-.008.098-.08.079ZM4.12 18.672s.012.02.01.03c-.002.01-.009.017-.012.026a.075.075 0 0 1-.012-.028c0-.01.008-.02.014-.028Zm.106.223c.08.023.086.08.074.149a.116.116 0 0 1-.074-.148v-.001Z"/><path fill-rule="evenodd" clip-rule="evenodd" d="M4.3 19.044c.066-.02.071.024.073.072-.06.01-.073-.025-.073-.074v.002Zm-.069-.154-.048-.021.024-.032c0 .02.014.038.02.058l.004-.005Zm6.913-12.223a.352.352 0 0 1 .217-.439l-.222.439h.005Zm.216-.441v-.068.068Zm19.206 13.041c-.122-.072-.272-.1-.36-.228a.348.348 0 0 1 .36.23v-.002Zm-.006.007.175.058-.157-.058h-.017Z"/><path fill-rule="evenodd" clip-rule="evenodd" d="m30.727 19.332.002.01-.006-.016.004.006Zm.211-7.888a.826.826 0 0 1 .122.066c.023.016.01.03-.017.013-.028-.018-.105-.01-.1-.084l-.005.005Zm-17.264 5.263a.226.226 0 0 1-.039.03.036.036 0 0 1-.03 0c-.033-.016-.03-.03 0-.035a.23.23 0 0 1 .069.005ZM24.16 14.96c0 .014 0 .03-.01.045a.093.093 0 0 1 0-.03.204.204 0 0 1 0-.045.3.3 0 0 0 .01.03Zm-11.637.76-.05.04.026-.021.03-.014-.006-.006Zm2.79 2.143a.075.075 0 0 1 .094-.066c.012 0 .02.026.03.04l-.13.02.006.006Z"/><path fill-rule="evenodd" clip-rule="evenodd" d="M15.308 17.858c-.02.09-.082.084-.15.07.022-.079.087-.074.148-.07h.002Zm-.151.07a.535.535 0 0 1-.022.056c-.058-.054.015-.035.03-.05l-.008-.006Zm-.154.118-.024.005.002-.016.022.01Zm-3.871-5.642a3.184 3.184 0 0 1-.087-1.053c.02-.16-.046-.204-.201-.218a2.326 2.326 0 0 1-.924-.31c-.174-.098-.25-.176-.045-.33.64-.495 1.31-.807 2.114-.38.026.013.068 0 .103 0-.028.298-.31.063-.414.205.143.084.307-.02.479.049-.175.4-.484.617-.91.768.276.216.573.351.775.616a1.184 1.184 0 0 1 .197 1.137c-.082.265-.244.293-.473.175a2.355 2.355 0 0 1-.555-.516c-.015-.057 0-.133-.078-.156l.019.013Zm.398-2.023v-.04l-.175.024v.026l.175-.01Zm4.223 1.28c-.156.64-.83.83-1.318.351-.103-.1-.143-.024-.206 0-.494.198-.957.072-1.407-.144-.077-.036-.211-.072-.09-.205.451-.488 1.32-.961 2.013-.468l-.734.226c.261-.056.529-.078.796-.067 0 .232-.198.334-.303.518.388-.339.81-.339 1.25-.214l-.001.003ZM9.58 13.22c-.134-.352-.387-.659-.394-1.066 0-.24-.102-.57.09-.68.192-.11.409.154.592.29.508.378.684.938.505 1.455-.072.204-.16.158-.28.074.014-.165-.094-.267-.223-.446.03.167.11.32.229.44.019.1.026.176-.12.12-.144-.056-.226-.212-.4-.188h.001Zm5.855-.027c-.143.07-.23-.037-.335-.05a1.43 1.43 0 0 0-.292-.036l.651.258c-.81.702-1.682.126-2.094-.526-.053-.083-.027-.116.056-.164.612-.343 1.58-.108 2.014.518Zm.745 2.168c.021.027.042.055.061.083-.094.35-.455.48-.846.312-.175-.079-.437-.198-.42-.363.015-.196.301-.175.484-.223a.952.952 0 0 1 .721.191Z"/><path fill-rule="evenodd" clip-rule="evenodd" d="M12.864 10.623c.213.016.448.023.488.247.04.225-.174.298-.34.37-.309.137-.59.018-.86-.13-.112-.06-.08-.127 0-.192.2-.171.45-.274.712-.295Zm-1.667 1.924c0 .176.118.327.059.5-.04.12-.042.28-.208.311-.166.031-.223-.084-.295-.176a1.006 1.006 0 0 1-.112-1.052c.22.009.29.26.49.28a.11.11 0 0 0 .033.137c.014.01.03.017.046.02l-.014-.02Zm6.837.165c-.174.063-.092.295-.248.37-.204-.587.163-1.403.71-1.612.083-.031.127-.031.175.051.35.609-.05 1.528-.787 1.695.054-.176.101-.351.148-.51l.027-.053a.447.447 0 0 0-.025.06Zm-.59 3.095c-.092-.542.105-.953.627-1.258a.71.71 0 0 1-.688-.647c.545-.053.733.142.698.672.012.133.035.265.07.394a.706.706 0 0 1-.404.774.695.695 0 0 1-.305.06l.002.005Zm.62-6.651a.5.5 0 0 1-.608.318.924.924 0 0 1-.665-.574c-.066-.133.061-.135.138-.146a1.065 1.065 0 0 1 .92.251c.061.056.063.206.206.151h.009Zm.771 1.177a1.33 1.33 0 0 1-.494-.175c.161.07.369 0 .49.19l.004-.015Zm2.926 7.079c.2.069.304-.145.479-.158.111 0 .232-.06.21.132-.04.35-.156.667-.492.853a.278.278 0 0 1-.312.007c-.12-.076-.073-.193-.084-.299-.017-.212.234-.322.196-.54l.003.005ZM11.53 10.38l-.183.011v-.026l.174-.025c0 .01 0 .027.009.04Z"/><path fill-rule="evenodd" clip-rule="evenodd" d="M11.204 12.553a.107.107 0 0 1-.079-.059.11.11 0 0 1 0-.098c.087.023.063.099.079.157Zm-1.105.735a.83.83 0 0 1-.23-.44c.13.175.238.28.224.445l.006-.005Zm7.935-.576c0-.019.014-.04.023-.06l-.026.053.003.007Z"/></g><defs><clipPath id="a"><path fill="#fff" d="M0 0h76v48H0z"/></clipPath></defs></svg>