<svg xmlns="http://www.w3.org/2000/svg" version="1.1" viewBox="0 0 400 140">
  <rect x="103.2672119" y="125.3785934" width="280.007019" height="6.3527298" />
  <rect x="393.5088501" y="125.3785934" width="6.3527222" height="6.3527298" />
  <rect x="385.22229" y="125.3785934" width="6.3527222" height="6.3527298" />
  <path
    d="M102.3266937,114.5887921l26.2012324-62.4070827h14.594499l25.8902399,62.4070827h-14.8277519l-5.9199932-14.1813966h-25.5792473l-5.9977328,14.1813966h-14.3612461ZM127.2173002,88.3871723h17.2046332l-8.3746141-20.6538166h-.3887492l-8.4523707,20.6538336.0111008-.000017Z"
  />
  <path
    d="M290.9333875,115.513426c-3.8874238,0-7.2306191-.7575215-10.0295521-2.2725816-2.7878491-1.5150601-5.0092341-3.6316803-6.6419535-6.3610288h-3.2210015v7.7089765h-14.139128v-13.8694739h6.9196266v-50.854752h14.139128v24.4303327h.3109925c1.3328446-2.1611904,3.1654805-3.8433457,5.4979415-5.0464832s5.131394-1.8158487,8.4079505-1.8158487c4.4538878,0,8.2413534,1.002606,11.3734805,3.0078351,3.1210433,2.005229,5.5090254,4.8125497,7.1417448,8.433096,1.6438371,3.6205463,2.454621,7.8203848,2.454621,12.5994984s-.8441372,8.9009799-2.5323776,12.5215262-4.1762147,6.450135-7.4527373,8.4776491c-3.2765565,2.0275141-7.352779,3.0412541-12.2176177,3.0412541h-.0111178ZM288.2454967,103.1812801c3.6319523,0,6.3420448-1.0471761,8.1080418-3.1637964,1.765997-2.1054862,2.6545714-4.95736,2.6545714-8.5556212s-.8885405-6.450135-2.6545714-8.5556212c-1.765997-2.1054862-4.4649717-3.1526624-8.1080418-3.1526624-3.1765643,0-5.6867403.8800638-7.5304939,2.6624934s-2.7656135,4.2221065-2.7656135,7.3636348v3.3865958c0,3.1303773.9218599,5.5812052,2.7656135,7.3636348s4.3539296,2.6624934,7.5304939,2.6624934v-.011151Z"
  />
  <path
    d="M340.4813645,115.513426c-5.0758729,0-9.4742058-.991472-13.2172342-2.963282-3.7430284-1.97181-6.6197179-4.7791136-8.6411864-8.3996599-2.0214685-3.6205463-3.0322028-7.8983569-3.0322028-12.8334489s.9885326-9.1794835,2.9544462-12.7554597c1.9659136-3.5648422,4.787082-6.3164587,8.4523538-8.2436986s7.9747641-2.8852928,12.9395611-2.8852928,9.1410116.9357679,12.6730057,2.8184547,6.2309688,4.5563142,8.1080418,8.0543182c1.8659553,3.498004,2.7989329,7.6755575,2.7989329,12.5549453v4.5451802h-34.3426276c.566464,2.974416,1.7881987,5.2247295,3.6875073,6.7397896,1.8992747,1.5150601,4.4094507,2.2725816,7.5304939,2.2725816,2.5101759,0,4.4649717-.4010458,5.8755729-1.1920034,1.4105673-.7909576,2.4213016-2.0720672,3.0322028-3.8099267h14.139128c-.9774148,5.0353491-3.4875908,8.9789521-7.5304939,11.8308258-4.042937,2.8518737-9.1965327,4.2778106-15.4386192,4.2778106l.0111178-.011134ZM329.4188765,86.1591438h20.5922488c-.455388-2.5622362-1.5216433-4.478342-3.1876821-5.7371666-1.6660388-1.2588415-3.931861-1.8938208-6.7974328-1.8938208s-5.1202762.6461303-6.9085088,1.9272399c-1.7993165,1.2811096-3.021085,3.1860814-3.6875073,5.7037475h-.0111178Z"
  />
  <path
    d="M371.0587281,114.5887921v-32.3621172h-6.9196266v-13.8694739h14.139128v9.2463216h3.2321193c1.1773314-3.3420427,3.0988416-5.8151557,5.7644969-7.430473s5.6312192-2.4285429,8.9077418-2.4285429h3.9207432v12.3321458h-4.5316106c-3.7874656,0-6.5197597,1.0583101-8.1857984,3.1637964s-2.4990582,4.8571028-2.4990582,8.2436986v23.1157956h-13.8281354v-.011151Z"
  />
  <rect x="168.9460262" y="67.9895742" width="14.7388945" height="14.7829738" />
  <path
    d="M249.404578,72.824392c-3.5653135-3.5425571-8.385715-5.3138527-14.4834399-5.3138527-6.8085506,0-12.0399028,2.461979-15.6718552,7.3970539h-.3109925c-1.6438371-2.4174089-3.7763478-4.2555426-6.4198014-5.5143671-2.6434536-1.2588415-5.8311357-1.8826868-9.5630463-1.8826868-3.9429449,0-7.2306191.7463875-9.8740728,2.2391625s-4.8315192,3.5982613-6.5641968,6.3164587h-.0333194v10.0261282h-10.4183012v28.4964864h14.139128v-24.7311128c0-3.2863386.7441789-5.7260325,2.2325028-7.3190817,1.4883239-1.5930322,3.7097089-2.3839898,6.6863568-2.3839898,6.1421283,0,9.2187343,3.2306345,9.2187343,9.7030716v24.7311128h14.139128v-24.7311128c0-6.47242,3.021085-9.7030716,9.063255-9.7030716s9.063255,3.2306345,9.063255,9.7030716v24.7311128h14.139128v-27.5050144c0-5.959983-1.7771148-10.7056776-5.3424283-14.2593857l-.0000339.000017Z"
  />
  <path
    d="M94.1679077,75.8748169c.0219116-.1972046.0219116-.4053955,0-.6026611,0-.0328979,0-.0767212-.0109863-.1095581-.0328369-.1972656-.0985718-.3835449-.1862793-.5588379,0-.0109863,0-.0328979-.0109253-.0438232l-15.4499512-29.3932495v-9.1439209h-4.8063354l-9.9423218-18.9151001v-7.3278809h-3.8517456l-3.4787598-6.6182861c-.0657349-.1315308-.1533813-.2520752-.2520142-.3725586l-.0657349-.0657349c-.0986328-.1096191-.2191772-.2191772-.3397217-.3068237-.0328369-.0219116-.0547485-.0438232-.0876465-.0657349-.1424561-.0986328-.2958374-.175354-.4602051-.2301025-.0109253,0-.0219116-.0109863-.0328369-.0219116-.0219727,0-.0438232,0-.0657959-.0109863-.1533813-.0438232-.3067627-.0766602-.4711304-.0876465h-.0657349c-.1643677,0-.3396606,0-.5150146.0438232-.0438232,0-.0767212.0219116-.1205444.0328979-.0547485.0109253-.1095581.0219116-.1643066.0438232-.0877075.0328369-.175354.0766602-.2630005.1095581-.0219116.0109863-.0438232.0219116-.0657349.0328979-.1534424.0876465-.2958984.1862183-.4273682.2958374-.0109253.0109253-.0328369.0219116-.0438232.0328369L8.7987671,43.7477417c-.0328369.0328369-.0657349.0766602-.0985718.1095581-.0328979.0438232-.0767212.0766602-.1096191.1205444-.0219116.0328369-.0547485.0657349-.0766602.0985718-.0109863.0219116-.0328979.0438232-.0438232.0657349-.0109863.0219116-.0219116.0438232-.0438843.0548096-.0109253.0219116-.0328369.0548096-.0438232.0767212-.0328369.0657349-.0657349.1314697-.0876465.1972046-.0219116.0438232-.0438232.0876465-.0548096.1315308v.0109253c0,.0219116-.0109253.0328979-.0219116.0548096,0,.0219116,0,.0438232-.0109253.0657349-.0109863.0548096-.0328979.1095581-.0438232.1643677,0,.0219116-.0109863.0547485-.0219116.0766602L.0219116,92.9683838v.0767212c0,.0438232-.0219116.0876465-.0219116.1424561,0,.1314697,0,.2629395.0109863.3834839v.0657349c.0219116.1862793.0876465.3725586.1643066.5479126.0219116.0437622.0438843.0876465.0657959.142395.0657349.1315308.1533813.2520142.2410278.3725586.0328979.0438232.0657349.0767212.0986328.1205444.0219116.0219116.0328369.0438232.0548096.0657349l41.6052246,41.4519043c.0657349.0657349.1424561.1204834.2191772.175293.0328369.0219116.0547485.0438232.0766602.0657349h.0109863c.1643677.1096191.3396606.1972046.5259399.2630005.0438232.0109253.0877075.0219116.1205444.0328369.1862793.0548096.3834839.0877075.5807495.0877075.1972046,0,.3944702-.0328979.5807495-.0877075.0219116,0,.0547485,0,.0766602-.0109253l31.9408569-10.0808105c.668396-.2081909,1.1943359-.7341309,1.4244995-1.4025269l16.2826538-49.1220703c.0438232-.1314697.0657959-.2520142.0877075-.3834839v-.0109863l-.000061.0109253ZM58.8418579,23.9696045h4.8493652l5.907959,12.0531616h-8.5030518l-2.2542725-12.0531616ZM56.7360229,9.7797852h-.5480347l-.3381348-1.8079834.8861694,1.8079834ZM53.8117676,5.2324219l.6114502,4.5473633h-4.8519897v14.1898193h6.7598877l2.9812622,22.1727905v9.0776978h1.2205811l.6202393,4.6130981-6.3662109-2.1038208-26.0974121-8.6125488h16.6849976v-17.7181396h-17.7181396v17.3771973l-14.704834-4.8528442L53.8117676,5.2324219ZM10.3185425,58.3322144l1.800293,10.31073,2.2243652,12.7215576-6.0375366,3.835083,2.0128784-26.8673706ZM13.9158325,53.4450073l22.4188843,28.215332-17.7400513-1.4135132v.0109253l-1.4573364-8.338562-3.2214966-18.4741821ZM9.8397217,89.2428589l7.5606079-4.6678467-.0109863-.0109863,21.706604,1.7312622,2.2024536,35.0198975-31.4586792-32.0723267ZM41.4189453,81.0247803L13.9158325,47.1554565l45.769104,16.8086548-8.3166504,7.7687988-9.9493408,9.2918701ZM73.984375,112.4177856l-28.1715088,8.8973999-2.3887329-36.1484985,20.895813-19.526062,21.8051758,8.656311-12.1407471,38.1208496ZM74.3787842,65.322876v-.000061l-8.513855-3.8021851-1.1783447-6.3005371h13.8231812v-1.0181885l7.8893433,16.0956421-12.0203247-4.9746704Z"
  />
</svg>
