<?xml version="1.0" encoding="UTF-8"?>
<svg id="Layer_1" xmlns="http://www.w3.org/2000/svg" width="400" height="140" version="1.1" viewBox="0 0 400 140">
  <!-- Generator: Adobe Illustrator 29.7.1, SVG Export Plug-In . SVG Version: 2.1.1 Build 8)  -->
  <defs>
    <style>
      .st0 {
        fill: #fff;
      }
    </style>
  </defs>
  <rect class="st0" x="103.2672119" y="125.3785934" width="280.007019" height="6.3527298"/>
  <rect class="st0" x="393.5088501" y="125.3785934" width="6.3527222" height="6.3527298"/>
  <rect class="st0" x="385.22229" y="125.3785934" width="6.3527222" height="6.3527298"/>
  <g>
    <path class="st0" d="M102.5560455,114.4067383l26.1686859-62.1592941h14.580658l25.8615112,62.1592941h-14.8108978l-5.9088593-14.1201706h-25.5548859l-5.9857941,14.1201706h-14.3504181ZM127.4201889,88.3149872h17.1897202l-8.364624-20.5659103h-.3840942l-8.4410019,20.5659103Z"/>
    <path class="st0" d="M176.2258911,114.4067383v-32.2308655h-6.9067688v-13.8135376h14.120163v7.6744308h3.2234039c1.7384796-2.7109146,3.9255219-4.8085709,6.5611267-6.2929688,2.6345367-1.4833145,5.9213257-2.2255096,9.8614655-2.2255096,3.7337341,0,6.9181519.6273499,9.5537567,1.8798752,2.6345367,1.2546921,4.7701111,3.0836411,6.4078217,5.4879227h.3071747c3.631897-4.9115067,8.8505707-7.3677979,15.6549377-7.3677979,6.0876465,0,10.9092102,1.7650223,14.4658051,5.2950668,3.5555115,3.5300446,5.3335266,8.2627716,5.3335266,14.1970978v27.396286h-14.120163v-24.6333618c0-6.4468231-3.0197144-9.6691513-9.0553436-9.6691513-6.037796,0-9.0558929,3.2223282-9.0558929,9.6691513v24.6333618h-14.120163v-24.6333618c0-6.4468231-3.0695496-9.6691513-9.2086639-9.6691513-2.9677124,0-5.1932068.7931213-6.6765289,2.3782806-1.4843903,1.5862427-2.2255096,4.0176163-2.2255096,7.2908707v24.6333618h-14.120163.0000153Z"/>
    <path class="st0" d="M290.9522705,115.327713c-3.8886719,0-7.2269287-.7551956-10.014801-2.2634277-2.7889404-1.5082321-5.0014343-3.6188889-6.6386108-6.3308868h-3.2223206v7.6733475h-14.120697v-13.8135376h6.9067688v-50.6481934h14.1201782v24.3267365h.3066406c1.3305359-2.1485825,3.1583862-3.8236694,5.4868469-5.0263519,2.3273621-1.2015991,5.129303-1.8040237,8.4036255-1.8040237,4.4510193,0,8.2367554.9979019,11.3572388,2.9937134,3.1204834,1.9947205,5.4987488,4.7955704,7.1370239,8.4025421,1.6371765,3.6069717,2.4562988,7.7892761,2.4562988,12.5469284,0,4.7078094-.8440552,8.8641129-2.5332336,12.4710846-1.6880798,3.6058884-4.1703796,6.4208221-7.443634,8.4415436-3.2743225,2.0207291-7.3417969,3.0305481-12.2012939,3.0305481l-.0000305-.0000229ZM288.2662659,103.0494995c3.631897,0,6.3309021-1.0477448,8.0959167-3.1464844,1.7650146-2.0976562,2.6480713-4.9364243,2.6480713-8.5184784,0-3.5798798-.8830566-6.4197388-2.6480713-8.5184784-1.7650146-2.0965729-4.4640198-3.145401-8.0959167-3.145401-3.1724854,0-5.6786194.8819656-7.5205688,2.6469879s-2.7629089,4.2093964-2.7629089,7.3287888v3.3761826c0,3.1215591.9209595,5.5637741,2.7629395,7.3287888,1.8419495,1.7650223,4.3480835,2.6480713,7.5205688,2.6480713l-.0000305.0000229Z"/>
    <path class="st0" d="M340.4497681,115.327713c-5.0653687,0-9.4654541-.9838181-13.1991882-2.9547043-3.7348328-1.9687195-6.6126099-4.7576447-8.6333313-8.3646164-2.0218201-3.6069717-3.0316467-7.8651276-3.0316467-12.7766266s.9848938-9.1447372,2.9547119-12.7007828c1.9687195-3.5549622,4.7825623-6.2929688,8.4415588-8.2118454,3.6567993-1.9177933,7.9680481-2.8777771,12.930481-2.8777771,4.911499,0,9.1328125.9339752,12.6628723,2.8019333,3.5300293,1.8679504,6.2279663,4.5398636,8.0959167,8.0189819,1.8668823,3.4791183,2.8008423,7.6484222,2.8008423,12.5090027v4.5268631h-34.3035889c.5623474,2.9677048,1.7910156,5.2072983,3.6838989,6.7155304,1.8917847,1.5093155,4.4000854,2.2634277,7.5205688,2.2634277,2.506134,0,4.4629211-.3954773,5.8703918-1.189682,1.4074707-.792038,2.4172974-2.0586472,3.0316467-3.7987518h14.1201782c-.9718933,5.0144348-3.479126,8.94104-7.5205688,11.779808-4.0414429,2.8398514-9.1837463,4.2592392-15.4247131,4.2592392h-.0000305ZM329.3991699,86.0894775h20.565918c-.4594116-2.5570602-1.5223083-4.4629364-3.1844177-5.7165451-1.6631775-1.2536087-3.9266052-1.8809586-6.7913818-1.8809586-2.8138428,0-5.116272.6403503-6.9062195,1.9188766-1.7921143,1.2796097-3.0197144,3.1724854-3.6838989,5.678627Z"/>
    <path class="st0" d="M370.9925537,114.4067383v-32.2308655h-6.9073181v-13.8135376h14.1201782v9.2086639h3.2234192c1.1766663-3.3241806,3.0944824-5.7934723,5.7555542-7.4046402,2.6600037-1.6122513,5.6276855-2.4172897,8.9020386-2.4172897h3.9136047v12.2782211h-4.5279541c-3.7868347,0-6.5107422,1.0488281-8.1728516,3.1464844-1.6631775,2.0976562-2.4942017,4.8345718-2.4942017,8.210762v23.0222015h-13.8124695Z"/>
  </g>
  <path class="st0" d="M76.9765549,48.4853668v-14.0908966h-7.4786377l-5.4208069-10.2138672V7.8732371h-8.6547318l-2.5617638-4.8265181-5.1073494,4.8265181h-.2096176v.1978831L8.4079094,45.0535583.3517863,93.3135376l41.3387311,42.0426636,32.5307961-10.1729431,17.4646378-48.2395325.1592331-.4431534s-14.8686371-28.0152092-14.8686295-28.0152054ZM76.8799286,52.8782959l11.5256119,21.7171326-27.6191864-10.5262909-.8898544-7.2776337h16.983429v-3.913208ZM74.8160324,36.4671402v8.1062508l-4.3021851-8.1062508h4.3021851ZM74.8160324,48.9893799v5.7061386h-15.1757736l-1.5451622-12.6381073v-5.590271h10.0751915s6.645752,12.5222397,6.6457443,12.5222397ZM67.0579529,34.371151h-9.9025841l-1.1443367-9.3592796h6.0798836l4.9670372,9.3592796ZM61.9165535,9.9459028v10.3225946l-5.478466-10.3225946h5.478466ZM60.9783249,22.9158497h-5.2232819l-1.5635452-12.7885389s6.7868233,12.7885389,6.7868271,12.7885389ZM51.7149048,6.8782673l.1184196.9716477h-1.1468277l1.0284081-.9716477ZM49.5109177,9.9459028h2.5788689l1.5852432,12.9699469h-4.1641121v-12.9699469ZM25.2156105,31.9192581v17.9958038h18.901722v-19.7870522h-17.0061188l20.3358078-19.2168865v14.1007481h6.483963l2.1002121,17.1825333v14.5971031h1.7842369l.7875786,6.4455986-3.083786-1.1752815v-2.0137482h-5.2837181l-39.0409927-14.8792915s14.0210953-13.2495232,14.0210953-13.249527ZM27.2795086,47.8190727v-15.5950737h14.7739277v15.5950775s-14.7739258,0-14.7739277-.0000038ZM57.961071,65.2318878l-2.4418449,2.2792053v-3.2097626l2.4418449.9305573ZM12.1536436,47.7737846l32.206048,12.2742882h-22.4682159s-9.7378311-12.2742882-9.7378321-12.2742882ZM37.0616951,82.510643l-19.6200256-1.3461914v-19.0203934h3.4619236l16.158102,20.3665848ZM19.2405224,60.0480728h-3.8627815v14.9730988l-3.9776592-24.8557358s7.8404408,9.8826408,7.8404408,9.882637ZM17.4416695,83.2651901l21.2261391,1.4572449.6361656,14.3952103h-21.8623028s0-15.8524628-.0000019-15.8524551ZM23.5545483,62.144062h26.3045444l3.5962334,1.3706436v5.9227257l-13.8548088,12.9317322s-16.045969-20.2250977-16.045969-20.2251015ZM9.4268713,50.8912964l4.9179296,30.7322998-11.5301409,8.8754578s6.6122103-39.6077614,6.6122112-39.6077576ZM2.9277825,93.0412674l12.4499564-9.5815201v17.753891h24.0187073l1.3383217,30.2808533L2.9277825,93.0412674ZM40.7090492,84.1806335l12.7462769-11.8957367v26.832756h-12.0864334l-.6598434-14.9370193ZM72.5404739,123.4610443l-29.6861191,9.2848511-1.3929825-31.5322647h14.0578575v-30.8549881l4.6085587-4.3009644,29.1698723,11.1172943s-16.7571869,46.2860641-16.7571869,46.2860718Z"/>
  <metadata>
    <sfw xmlns="http://ns.adobe.com/SaveForWeb/1.0/">
      <slices/>
      <sliceSourceBounds x="0.35" y="4.64" width="399.65" height="132.31" bottomLeftOrigin="true"/>
    </sfw>
  </metadata>
</svg>