<svg viewBox="0 0 40 40" fill="none" xmlns="http://www.w3.org/2000/svg">
  <path
    d="M20 40c11.046 0 20-8.954 20-20S31.046 0 20 0 0 8.954 0 20s8.954 20 20 20Z"
    fill="#06F"
  ></path>
  <path
    d="M11.616 10.828H8.541c-2.023 2.523-3.232 5.703-3.232 9.146A14.52 14.52 0 0 0 8.54 29.12h3.075s-3.443-3.785-3.443-9.146c0-5.361 3.443-9.146 3.443-9.146ZM28.384 29.147h3.075c2.023-2.523 3.232-5.703 3.232-9.146 0-3.443-1.209-6.649-3.232-9.146h-3.075s3.443 3.785 3.443 9.146c0 5.362-3.443 9.146-3.443 9.146ZM18.45 10.854v2.655h1.392v-2.655h1.682v2.629s.132 0 .237.026c.604.052 1.209.157 1.787.368.605.21 1.183.5 1.603 1.025.316.394.473.84.552 1.34.079.447.053.92-.052 1.34-.132.5-.368.947-.789 1.288-.158.105-.289.263-.473.316-.026 0-.053.052-.079.105.158.052.29.131.447.157.42.105.762.342 1.104.605.368.289.578.657.71 1.077.13.342.183.71.183 1.052 0 .683-.079 1.366-.368 1.997-.236.473-.525.867-.946 1.183-.394.289-.84.499-1.314.63a6.808 6.808 0 0 1-1.419.29c-.63.078-1.104.105-1.104.105v2.76h-1.708v-2.76h-1.393v2.76H16.82v-2.76h-3.338l.158-2.024s.867.026 1.235 0c.473-.026.657-.342.657-.71V16.19c0-.315-.131-.578-.394-.735a1.162 1.162 0 0 0-.42-.158c-.421-.026-1.42-.026-1.42-.026v-1.787h3.443v-2.655h1.709v.026Zm1.05 9.724h-.893c-.052 0-.105-.026-.105.08v3.521c0 .158.026.184.21.21.71 0 1.446 0 2.155-.079.5-.052.999-.157 1.472-.394.184-.079.394-.21.526-.341.368-.342.525-.815.473-1.314a1.476 1.476 0 0 0-.684-1.104c-.499-.342-1.05-.473-1.655-.526-.5-.053-1.498-.079-1.498-.053Zm-1.024-2.601v.735c0 .132.052.184.157.184.579 0 1.13 0 1.709-.052.525-.053 1.025-.158 1.472-.447.367-.21.578-.525.683-.893.026-.106.026-.237.026-.368 0-.342-.079-.657-.289-.894-.21-.263-.5-.447-.841-.578-.552-.21-1.13-.263-1.708-.263h-.999c-.158 0-.21.053-.21.21v2.366Z"
    fill="#fff"
  ></path>
</svg>
