<svg width="7680" height="4320" viewBox="0 0 7680 4320" fill="none" xmlns="http://www.w3.org/2000/svg" xmlns:xlink="http://www.w3.org/1999/xlink">
<g clip-path="url(#clip0_104_173)">
<mask id="mask0_104_173" style="mask-type:luminance" maskUnits="userSpaceOnUse" x="0" y="0" width="7680" height="4320">
<path d="M7680 0H0V4320H7680V0Z" fill="white"/>
</mask>
<g mask="url(#mask0_104_173)">
<path d="M3344 1738C3345.1 1738 3346 1737.1 3346 1736C3346 1734.9 3345.1 1734 3344 1734C3342.9 1734 3342 1734.9 3342 1736C3342 1737.1 3342.9 1738 3344 1738Z" fill="#D9D9D9"/>
<path d="M3522 1600C3523.1 1600 3524 1599.1 3524 1598C3524 1596.9 3523.1 1596 3522 1596C3520.9 1596 3520 1596.9 3520 1598C3520 1599.1 3520.9 1600 3522 1600Z" fill="#D9D9D9" fill-opacity="0.7"/>
<path d="M3645 1528C3645.55 1528 3646 1527.55 3646 1527C3646 1526.45 3645.55 1526 3645 1526C3644.45 1526 3644 1526.45 3644 1527C3644 1527.55 3644.45 1528 3645 1528Z" fill="#D9D9D9" fill-opacity="0.5"/>
<path d="M3347 1498C3347.55 1498 3348 1497.55 3348 1497C3348 1496.45 3347.55 1496 3347 1496C3346.45 1496 3346 1496.45 3346 1497C3346 1497.55 3346.45 1498 3347 1498Z" fill="#D9D9D9"/>
<path d="M3985 1574C3985.55 1574 3986 1573.55 3986 1573C3986 1572.45 3985.55 1572 3985 1572C3984.45 1572 3984 1572.45 3984 1573C3984 1573.55 3984.45 1574 3985 1574Z" fill="#D9D9D9"/>
<path d="M4303.99 873C4303.03 873.552 4302.71 874.776 4303.26 875.732C4303.81 876.689 4305.03 877.017 4305.99 876.464C4306.95 875.912 4307.27 874.689 4306.72 873.732C4306.17 872.776 4304.95 872.448 4303.99 873Z" fill="#D9D9D9"/>
<path d="M4218.84 1081.51C4217.88 1082.06 4217.56 1083.28 4218.11 1084.24C4218.66 1085.2 4219.88 1085.52 4220.84 1084.97C4221.8 1084.42 4222.12 1083.2 4221.57 1082.24C4221.02 1081.28 4219.8 1080.96 4218.84 1081.51Z" fill="#D9D9D9" fill-opacity="0.7"/>
<path d="M4148.31 1205.36C4147.83 1205.64 4147.67 1206.25 4147.94 1206.73C4148.22 1207.21 4148.83 1207.37 4149.31 1207.1C4149.79 1206.82 4149.95 1206.21 4149.68 1205.73C4149.4 1205.25 4148.79 1205.09 4148.31 1205.36Z" fill="#D9D9D9" fill-opacity="0.5"/>
<path d="M4421.39 1082.34C4420.91 1082.62 4420.75 1083.23 4421.02 1083.71C4421.3 1084.19 4421.91 1084.35 4422.39 1084.08C4422.87 1083.8 4423.03 1083.19 4422.76 1082.71C4422.48 1082.23 4421.87 1082.07 4421.39 1082.34Z" fill="#D9D9D9"/>
<path d="M3830.87 1335.52C3830.39 1335.8 3830.23 1336.41 3830.5 1336.89C3830.78 1337.37 3831.39 1337.53 3831.87 1337.26C3832.35 1336.98 3832.51 1336.37 3832.24 1335.89C3831.96 1335.41 3831.35 1335.25 3830.87 1335.52Z" fill="#D9D9D9"/>
<path d="M3989.32 152.86C3988.53 153.641 3988.53 154.907 3989.32 155.688C3990.1 156.469 3991.36 156.469 3992.14 155.688C3992.93 154.907 3992.93 153.641 3992.14 152.86C3991.36 152.079 3990.1 152.079 3989.32 152.86Z" fill="#D9D9D9" fill-opacity="0.7"/>
<path d="M3953.25 290.746C3952.86 291.136 3952.86 291.77 3953.25 292.16C3953.64 292.551 3954.28 292.551 3954.67 292.16C3955.06 291.77 3955.06 291.136 3954.67 290.746C3954.28 290.355 3953.64 290.355 3953.25 290.746Z" fill="#D9D9D9" fill-opacity="0.5"/>
<path d="M4185.18 101.241C4184.79 101.632 4184.79 102.265 4185.18 102.655C4185.57 103.046 4186.21 103.046 4186.6 102.655C4186.99 102.265 4186.99 101.632 4186.6 101.241C4186.21 100.851 4185.57 100.851 4185.18 101.241Z" fill="#D9D9D9"/>
<path d="M3680.31 498.635C3679.92 499.025 3679.92 499.659 3680.31 500.049C3680.7 500.44 3681.34 500.44 3681.73 500.049C3682.12 499.659 3682.12 499.025 3681.73 498.635C3681.34 498.244 3680.7 498.244 3680.31 498.635Z" fill="#D9D9D9"/>
<path d="M3950.43 1219.88C3950.72 1218.81 3950.08 1217.71 3949.02 1217.43C3947.95 1217.14 3946.85 1217.78 3946.57 1218.84C3946.28 1219.91 3946.92 1221.01 3947.98 1221.29C3949.05 1221.58 3950.15 1220.94 3950.43 1219.88Z" fill="#D9D9D9"/>
<path d="M3863.2 1012.23C3863.49 1011.16 3862.85 1010.06 3861.79 1009.78C3860.72 1009.49 3859.62 1010.13 3859.34 1011.19C3859.05 1012.26 3859.69 1013.36 3860.75 1013.64C3861.82 1013.93 3862.92 1013.29 3863.2 1012.23Z" fill="#D9D9D9" fill-opacity="0.7"/>
<path d="M3825.5 874.78C3825.64 874.246 3825.32 873.698 3824.79 873.555C3824.25 873.412 3823.71 873.729 3823.56 874.262C3823.42 874.796 3823.74 875.344 3824.27 875.487C3824.8 875.63 3825.35 875.313 3825.5 874.78Z" fill="#D9D9D9" fill-opacity="0.5"/>
<path d="M3719.39 1154.86C3719.53 1154.33 3719.21 1153.78 3718.68 1153.63C3718.15 1153.49 3717.6 1153.81 3717.45 1154.34C3717.31 1154.87 3717.63 1155.42 3718.16 1155.57C3718.69 1155.71 3719.24 1155.39 3719.39 1154.86Z" fill="#D9D9D9"/>
<path d="M3957.93 558.271C3958.07 557.737 3957.75 557.189 3957.22 557.046C3956.68 556.903 3956.14 557.22 3955.99 557.753C3955.85 558.287 3956.17 558.835 3956.7 558.978C3957.23 559.121 3957.78 558.804 3957.93 558.271Z" fill="#D9D9D9"/>
<path d="M4671.42 713.769C4672.2 714.55 4673.46 714.55 4674.24 713.769C4675.03 712.988 4675.03 711.722 4674.24 710.941C4673.46 710.16 4672.2 710.16 4671.42 710.941C4670.63 711.722 4670.63 712.988 4671.42 713.769Z" fill="#D9D9D9"/>
<path d="M4894.86 742.053C4895.64 742.834 4896.9 742.834 4897.68 742.053C4898.46 741.272 4898.46 740.006 4897.68 739.225C4896.9 738.444 4895.64 738.444 4894.86 739.225C4894.07 740.006 4894.07 741.272 4894.86 742.053Z" fill="#D9D9D9" fill-opacity="0.7"/>
<path d="M5032.74 778.115C5033.13 778.506 5033.77 778.506 5034.16 778.115C5034.55 777.725 5034.55 777.092 5034.16 776.701C5033.77 776.311 5033.13 776.311 5032.74 776.701C5032.35 777.092 5032.35 777.725 5032.74 778.115Z" fill="#D9D9D9" fill-opacity="0.5"/>
<path d="M4843.24 546.184C4843.63 546.575 4844.27 546.575 4844.66 546.184C4845.05 545.794 4845.05 545.161 4844.66 544.77C4844.27 544.38 4843.63 544.38 4843.24 544.77C4842.85 545.161 4842.85 545.794 4843.24 546.184Z" fill="#D9D9D9"/>
<path d="M5240.63 1051.06C5241.02 1051.45 5241.66 1051.45 5242.05 1051.06C5242.44 1050.67 5242.44 1050.03 5242.05 1049.64C5241.66 1049.25 5241.02 1049.25 5240.63 1049.64C5240.24 1050.03 5240.24 1050.67 5240.63 1051.06Z" fill="#D9D9D9"/>
<path d="M5961.88 780.936C5960.81 780.65 5959.71 781.284 5959.43 782.35C5959.14 783.417 5959.77 784.514 5960.84 784.8C5961.91 785.086 5963.01 784.453 5963.29 783.386C5963.58 782.319 5962.94 781.222 5961.88 780.936Z" fill="#D9D9D9"/>
<path d="M5754.23 868.164C5753.16 867.878 5752.06 868.511 5751.78 869.578C5751.49 870.645 5752.13 871.742 5753.19 872.028C5754.26 872.314 5755.36 871.681 5755.64 870.614C5755.93 869.547 5755.3 868.45 5754.23 868.164Z" fill="#D9D9D9" fill-opacity="0.7"/>
<path d="M5616.78 905.876C5616.24 905.733 5615.7 906.05 5615.55 906.583C5615.41 907.117 5615.73 907.665 5616.26 907.808C5616.79 907.951 5617.34 907.634 5617.49 907.101C5617.63 906.568 5617.31 906.019 5616.78 905.876Z" fill="#D9D9D9" fill-opacity="0.5"/>
<path d="M5896.86 1011.98C5896.32 1011.84 5895.78 1012.16 5895.63 1012.69C5895.49 1013.22 5895.81 1013.77 5896.34 1013.92C5896.87 1014.06 5897.42 1013.74 5897.57 1013.21C5897.71 1012.68 5897.39 1012.13 5896.86 1011.98Z" fill="#D9D9D9"/>
<path d="M5300.27 773.445C5299.74 773.302 5299.19 773.619 5299.04 774.152C5298.9 774.686 5299.22 775.234 5299.75 775.377C5300.28 775.52 5300.83 775.203 5300.98 774.67C5301.12 774.136 5300.8 773.588 5300.27 773.445Z" fill="#D9D9D9"/>
<path d="M5864.68 -0.67627C5864.68 0.4283 5865.58 1.32373 5866.68 1.32373C5867.78 1.32373 5868.68 0.4283 5868.68 -0.67627C5868.68 -1.78084 5867.78 -2.67627 5866.68 -2.67627C5865.58 -2.67627 5864.68 -1.78084 5864.68 -0.67627Z" fill="#D9D9D9" fill-opacity="0.7"/>
<path d="M5936.68 122.323C5936.68 122.876 5937.13 123.323 5937.68 123.323C5938.23 123.323 5938.68 122.876 5938.68 122.323C5938.68 121.771 5938.23 121.323 5937.68 121.323C5937.13 121.323 5936.68 121.771 5936.68 122.323Z" fill="#D9D9D9" fill-opacity="0.5"/>
<path d="M5890.68 462.323C5890.68 462.876 5891.13 463.323 5891.68 463.323C5892.23 463.323 5892.68 462.876 5892.68 462.323C5892.68 461.771 5892.23 461.323 5891.68 461.323C5891.13 461.323 5890.68 461.771 5890.68 462.323Z" fill="#D9D9D9"/>
<path d="M6591.68 781.312C6591.13 780.355 6589.91 780.028 6588.95 780.58C6587.99 781.132 6587.67 782.355 6588.22 783.312C6588.77 784.268 6589.99 784.596 6590.95 784.044C6591.91 783.492 6592.24 782.268 6591.68 781.312Z" fill="#D9D9D9"/>
<path d="M6383.17 696.16C6382.62 695.203 6381.4 694.876 6380.44 695.428C6379.48 695.98 6379.15 697.203 6379.71 698.16C6380.26 699.117 6381.48 699.444 6382.44 698.892C6383.4 698.34 6383.72 697.117 6383.17 696.16Z" fill="#D9D9D9" fill-opacity="0.7"/>
<path d="M6259.32 625.638C6259.04 625.16 6258.43 624.996 6257.95 625.272C6257.47 625.548 6257.31 626.16 6257.58 626.638C6257.86 627.116 6258.47 627.28 6258.95 627.004C6259.43 626.728 6259.59 626.116 6259.32 625.638Z" fill="#D9D9D9" fill-opacity="0.5"/>
<path d="M6382.34 898.714C6382.06 898.236 6381.45 898.072 6380.97 898.348C6380.49 898.624 6380.33 899.236 6380.6 899.714C6380.88 900.192 6381.49 900.356 6381.97 900.08C6382.45 899.804 6382.61 899.192 6382.34 898.714Z" fill="#D9D9D9"/>
<path d="M6129.16 308.19C6128.88 307.712 6128.27 307.548 6127.79 307.824C6127.31 308.1 6127.15 308.712 6127.42 309.19C6127.7 309.668 6128.31 309.832 6128.79 309.556C6129.27 309.28 6129.43 308.668 6129.16 308.19Z" fill="#D9D9D9"/>
<path d="M3438.68 3348.68C3438.68 3347.58 3437.78 3346.68 3436.68 3346.68C3435.58 3346.68 3434.68 3347.58 3434.68 3348.68C3434.68 3349.78 3435.58 3350.68 3436.68 3350.68C3437.78 3350.68 3438.68 3349.78 3438.68 3348.68Z" fill="#D9D9D9"/>
<path d="M3300.68 3170.68C3300.68 3169.58 3299.78 3168.68 3298.68 3168.68C3297.58 3168.68 3296.68 3169.58 3296.68 3170.68C3296.68 3171.78 3297.58 3172.68 3298.68 3172.68C3299.78 3172.68 3300.68 3171.78 3300.68 3170.68Z" fill="#D9D9D9" fill-opacity="0.7"/>
<path d="M3228.68 3047.68C3228.68 3047.13 3228.23 3046.68 3227.68 3046.68C3227.13 3046.68 3226.68 3047.13 3226.68 3047.68C3226.68 3048.23 3227.13 3048.68 3227.68 3048.68C3228.23 3048.68 3228.68 3048.23 3228.68 3047.68Z" fill="#D9D9D9" fill-opacity="0.5"/>
<path d="M3198.68 3345.68C3198.68 3345.13 3198.23 3344.68 3197.68 3344.68C3197.13 3344.68 3196.68 3345.13 3196.68 3345.68C3196.68 3346.23 3197.13 3346.68 3197.68 3346.68C3198.23 3346.68 3198.68 3346.23 3198.68 3345.68Z" fill="#D9D9D9"/>
<path d="M3274.68 2707.68C3274.68 2707.13 3274.23 2706.68 3273.68 2706.68C3273.13 2706.68 3272.68 2707.13 3272.68 2707.68C3272.68 2708.23 3273.13 2708.68 3273.68 2708.68C3274.23 2708.68 3274.68 2708.23 3274.68 2707.68Z" fill="#D9D9D9"/>
<path d="M2573.68 2388.7C2574.23 2389.66 2575.45 2389.98 2576.41 2389.43C2577.37 2388.88 2577.69 2387.66 2577.14 2386.7C2576.59 2385.74 2575.37 2385.42 2574.41 2385.97C2573.45 2386.52 2573.13 2387.74 2573.68 2388.7Z" fill="#D9D9D9"/>
<path d="M2782.19 2473.85C2782.74 2474.81 2783.96 2475.13 2784.92 2474.58C2785.88 2474.03 2786.2 2472.81 2785.65 2471.85C2785.1 2470.89 2783.88 2470.57 2782.92 2471.12C2781.96 2471.67 2781.64 2472.89 2782.19 2473.85Z" fill="#D9D9D9" fill-opacity="0.7"/>
<path d="M2906.04 2544.37C2906.32 2544.85 2906.93 2545.01 2907.41 2544.74C2907.89 2544.46 2908.05 2543.85 2907.78 2543.37C2907.5 2542.89 2906.89 2542.73 2906.41 2543C2905.93 2543.28 2905.77 2543.89 2906.04 2544.37Z" fill="#D9D9D9" fill-opacity="0.5"/>
<path d="M2783.02 2271.29C2783.3 2271.77 2783.91 2271.93 2784.39 2271.66C2784.87 2271.38 2785.03 2270.77 2784.76 2270.29C2784.48 2269.81 2783.87 2269.65 2783.39 2269.92C2782.91 2270.2 2782.75 2270.81 2783.02 2271.29Z" fill="#D9D9D9"/>
<path d="M3036.2 2861.82C3036.48 2862.3 3037.09 2862.46 3037.57 2862.19C3038.05 2861.91 3038.21 2861.3 3037.94 2860.82C3037.66 2860.34 3037.05 2860.18 3036.57 2860.45C3036.09 2860.73 3035.93 2861.34 3036.2 2861.82Z" fill="#D9D9D9"/>
<path d="M1630.1 2675.08C1630.88 2675.87 1632.14 2675.87 1632.92 2675.08C1633.71 2674.3 1633.71 2673.04 1632.92 2672.26C1632.14 2671.47 1630.88 2671.47 1630.1 2672.26C1629.31 2673.04 1629.31 2674.3 1630.1 2675.08Z" fill="#D9D9D9"/>
<path d="M1853.54 2703.37C1854.32 2704.16 1855.58 2704.16 1856.36 2703.37C1857.14 2702.59 1857.14 2701.33 1856.36 2700.55C1855.58 2699.76 1854.32 2699.76 1853.54 2700.55C1852.75 2701.33 1852.75 2702.59 1853.54 2703.37Z" fill="#D9D9D9" fill-opacity="0.7"/>
<path d="M1991.42 2739.43C1991.81 2739.82 1992.45 2739.82 1992.84 2739.43C1993.23 2739.04 1993.23 2738.4 1992.84 2738.01C1992.45 2737.62 1991.81 2737.62 1991.42 2738.01C1991.03 2738.4 1991.03 2739.04 1991.42 2739.43Z" fill="#D9D9D9" fill-opacity="0.5"/>
<path d="M1801.91 2507.5C1802.3 2507.89 1802.94 2507.89 1803.33 2507.5C1803.72 2507.11 1803.72 2506.47 1803.33 2506.08C1802.94 2505.69 1802.3 2505.69 1801.91 2506.08C1801.52 2506.47 1801.52 2507.11 1801.91 2507.5Z" fill="#D9D9D9"/>
<path d="M2199.31 3012.38C2199.7 3012.77 2200.34 3012.77 2200.73 3012.38C2201.12 3011.99 2201.12 3011.35 2200.73 3010.96C2200.34 3010.57 2199.7 3010.57 2199.31 3010.96C2198.92 3011.35 2198.92 3011.99 2199.31 3012.38Z" fill="#D9D9D9"/>
<path d="M2920.55 2742.25C2919.48 2741.96 2918.39 2742.6 2918.1 2743.66C2917.81 2744.73 2918.45 2745.83 2919.51 2746.11C2920.58 2746.4 2921.68 2745.76 2921.96 2744.7C2922.25 2743.63 2921.62 2742.53 2920.55 2742.25Z" fill="#D9D9D9"/>
<path d="M2712.9 2829.48C2711.83 2829.19 2710.73 2829.83 2710.45 2830.89C2710.16 2831.96 2710.79 2833.06 2711.86 2833.34C2712.93 2833.63 2714.02 2832.99 2714.31 2831.93C2714.6 2830.86 2713.96 2829.76 2712.9 2829.48Z" fill="#D9D9D9" fill-opacity="0.7"/>
<path d="M2575.46 2867.19C2574.92 2867.05 2574.38 2867.37 2574.23 2867.9C2574.09 2868.43 2574.41 2868.98 2574.94 2869.13C2575.47 2869.27 2576.02 2868.95 2576.17 2868.42C2576.31 2867.89 2575.99 2867.34 2575.46 2867.19Z" fill="#D9D9D9" fill-opacity="0.5"/>
<path d="M2855.54 2973.29C2855.01 2973.15 2854.46 2973.47 2854.32 2974C2854.17 2974.53 2854.49 2975.08 2855.02 2975.23C2855.56 2975.37 2856.1 2975.05 2856.25 2974.52C2856.39 2973.99 2856.07 2973.44 2855.54 2973.29Z" fill="#D9D9D9"/>
<path d="M2258.95 2734.76C2258.42 2734.62 2257.87 2734.94 2257.73 2735.47C2257.58 2736 2257.9 2736.55 2258.43 2736.7C2258.97 2736.84 2259.51 2736.52 2259.66 2735.99C2259.8 2735.46 2259.48 2734.91 2258.95 2734.76Z" fill="#D9D9D9"/>
<path d="M2414.44 2021.27C2415.22 2020.49 2415.22 2019.23 2414.44 2018.45C2413.66 2017.66 2412.4 2017.66 2411.62 2018.45C2410.83 2019.23 2410.83 2020.49 2411.62 2021.27C2412.4 2022.06 2413.66 2022.06 2414.44 2021.27Z" fill="#D9D9D9"/>
<path d="M2442.72 1797.82C2443.5 1797.04 2443.5 1795.78 2442.72 1795C2441.94 1794.21 2440.68 1794.21 2439.89 1795C2439.11 1795.78 2439.11 1797.04 2439.89 1797.82C2440.68 1798.61 2441.94 1798.61 2442.72 1797.82Z" fill="#D9D9D9" fill-opacity="0.7"/>
<path d="M2478.79 1659.94C2479.18 1659.55 2479.18 1658.91 2478.79 1658.52C2478.4 1658.13 2477.76 1658.13 2477.37 1658.52C2476.98 1658.91 2476.98 1659.55 2477.37 1659.94C2477.76 1660.33 2478.4 1660.33 2478.79 1659.94Z" fill="#D9D9D9" fill-opacity="0.5"/>
<path d="M2246.86 1849.45C2247.25 1849.06 2247.25 1848.42 2246.86 1848.03C2246.47 1847.64 2245.83 1847.64 2245.44 1848.03C2245.05 1848.42 2245.05 1849.06 2245.44 1849.45C2245.83 1849.84 2246.47 1849.84 2246.86 1849.45Z" fill="#D9D9D9"/>
<path d="M2751.74 1452.05C2752.13 1451.66 2752.13 1451.02 2751.74 1450.63C2751.35 1450.24 2750.71 1450.24 2750.32 1450.63C2749.93 1451.02 2749.93 1451.66 2750.32 1452.05C2750.71 1452.44 2751.35 1452.44 2751.74 1452.05Z" fill="#D9D9D9"/>
<path d="M2481.61 730.807C2481.32 731.874 2481.95 732.971 2483.02 733.257C2484.09 733.543 2485.18 732.91 2485.47 731.843C2485.76 730.776 2485.12 729.679 2484.06 729.393C2482.99 729.107 2481.89 729.741 2481.61 730.807Z" fill="#D9D9D9"/>
<path d="M2568.84 938.459C2568.55 939.526 2569.18 940.623 2570.25 940.909C2571.32 941.195 2572.42 940.562 2572.7 939.495C2572.99 938.428 2572.35 937.331 2571.29 937.045C2570.22 936.759 2569.12 937.393 2568.84 938.459Z" fill="#D9D9D9" fill-opacity="0.7"/>
<path d="M2606.55 1075.9C2606.41 1076.43 2606.73 1076.98 2607.26 1077.13C2607.79 1077.27 2608.34 1076.95 2608.49 1076.42C2608.63 1075.89 2608.31 1075.34 2607.78 1075.19C2607.24 1075.05 2606.7 1075.37 2606.55 1075.9Z" fill="#D9D9D9" fill-opacity="0.5"/>
<path d="M2712.65 795.822C2712.51 796.356 2712.83 796.904 2713.36 797.047C2713.89 797.19 2714.44 796.873 2714.58 796.34C2714.73 795.806 2714.41 795.258 2713.88 795.115C2713.34 794.972 2712.8 795.289 2712.65 795.822Z" fill="#D9D9D9"/>
<path d="M2474.12 1392.41C2473.98 1392.94 2474.3 1393.49 2474.83 1393.64C2475.36 1393.78 2475.91 1393.46 2476.06 1392.93C2476.2 1392.4 2475.88 1391.85 2475.35 1391.7C2474.82 1391.56 2474.27 1391.88 2474.12 1392.41Z" fill="#D9D9D9"/>
<path d="M1522 966C1523.1 966 1524 965.105 1524 964C1524 962.895 1523.1 962 1522 962C1520.9 962 1520 962.895 1520 964C1520 965.105 1520.9 966 1522 966Z" fill="#D9D9D9"/>
<path d="M1700 828C1701.1 828 1702 827.105 1702 826C1702 824.895 1701.1 824 1700 824C1698.9 824 1698 824.895 1698 826C1698 827.105 1698.9 828 1700 828Z" fill="#D9D9D9" fill-opacity="0.7"/>
<path d="M1823 756C1823.55 756 1824 755.552 1824 755C1824 754.448 1823.55 754 1823 754C1822.45 754 1822 754.448 1822 755C1822 755.552 1822.45 756 1823 756Z" fill="#D9D9D9" fill-opacity="0.5"/>
<path d="M1525 726C1525.55 726 1526 725.552 1526 725C1526 724.448 1525.55 724 1525 724C1524.45 724 1524 724.448 1524 725C1524 725.552 1524.45 726 1525 726Z" fill="#D9D9D9"/>
<path d="M2163 802C2163.55 802 2164 801.552 2164 801C2164 800.448 2163.55 800 2163 800C2162.45 800 2162 800.448 2162 801C2162 801.552 2162.45 802 2163 802Z" fill="#D9D9D9"/>
<path d="M2481.99 101C2481.03 101.552 2480.71 102.775 2481.26 103.732C2481.81 104.689 2483.03 105.016 2483.99 104.464C2484.95 103.912 2485.27 102.689 2484.72 101.732C2484.17 100.775 2482.95 100.448 2481.99 101Z" fill="#D9D9D9"/>
<path d="M2396.84 309.512C2395.88 310.064 2395.56 311.288 2396.11 312.244C2396.66 313.201 2397.88 313.528 2398.84 312.976C2399.8 312.424 2400.12 311.201 2399.57 310.244C2399.02 309.288 2397.8 308.96 2396.84 309.512Z" fill="#D9D9D9" fill-opacity="0.7"/>
<path d="M2326.31 433.365C2325.83 433.641 2325.67 434.253 2325.94 434.731C2326.22 435.209 2326.83 435.373 2327.31 435.097C2327.79 434.821 2327.95 434.209 2327.68 433.731C2327.4 433.253 2326.79 433.089 2326.31 433.365Z" fill="#D9D9D9" fill-opacity="0.5"/>
<path d="M2599.39 310.346C2598.91 310.622 2598.75 311.234 2599.02 311.712C2599.3 312.19 2599.91 312.354 2600.39 312.078C2600.87 311.802 2601.03 311.19 2600.76 310.712C2600.48 310.234 2599.87 310.07 2599.39 310.346Z" fill="#D9D9D9"/>
<path d="M2008.87 563.528C2008.39 563.804 2008.23 564.416 2008.5 564.894C2008.78 565.372 2009.39 565.536 2009.87 565.26C2010.35 564.984 2010.51 564.372 2010.24 563.894C2009.96 563.416 2009.35 563.252 2008.87 563.528Z" fill="#D9D9D9"/>
<path d="M265.975 908.576C265.442 909.543 265.794 910.76 266.761 911.293C267.729 911.826 268.945 911.474 269.478 910.506C270.011 909.539 269.659 908.323 268.692 907.789C267.724 907.256 266.508 907.608 265.975 908.576Z" fill="#D9D9D9"/>
<path d="M300.926 1131.07C300.393 1132.04 300.745 1133.26 301.712 1133.79C302.68 1134.32 303.896 1133.97 304.429 1133.01C304.962 1132.04 304.61 1130.82 303.643 1130.29C302.676 1129.76 301.459 1130.11 300.926 1131.07Z" fill="#D9D9D9" fill-opacity="0.7"/>
<path d="M304.617 1273.55C304.351 1274.03 304.527 1274.64 305.01 1274.91C305.494 1275.17 306.102 1275 306.369 1274.51C306.635 1274.03 306.459 1273.42 305.976 1273.15C305.492 1272.89 304.884 1273.06 304.617 1273.55Z" fill="#D9D9D9" fill-opacity="0.5"/>
<path d="M474.723 1027.04C474.456 1027.52 474.632 1028.13 475.116 1028.4C475.6 1028.66 476.208 1028.49 476.474 1028C476.741 1027.52 476.565 1026.91 476.081 1026.64C475.598 1026.38 474.989 1026.55 474.723 1027.04Z" fill="#D9D9D9"/>
<path d="M100.229 1549.13C99.9621 1549.61 100.138 1550.22 100.622 1550.49C101.105 1550.75 101.714 1550.58 101.98 1550.09C102.247 1549.61 102.071 1549 101.587 1548.73C101.103 1548.47 100.495 1548.64 100.229 1549.13Z" fill="#D9D9D9"/>
<path d="M560.217 2166.84C560.195 2165.74 559.282 2164.86 558.178 2164.88C557.073 2164.9 556.196 2165.82 556.218 2166.92C556.24 2168.02 557.153 2168.9 558.257 2168.88C559.362 2168.86 560.239 2167.94 560.217 2166.84Z" fill="#D9D9D9"/>
<path d="M418.698 1991.62C418.676 1990.52 417.763 1989.64 416.658 1989.66C415.554 1989.68 414.676 1990.6 414.698 1991.7C414.72 1992.8 415.634 1993.68 416.738 1993.66C417.842 1993.64 418.72 1992.72 418.698 1991.62Z" fill="#D9D9D9" fill-opacity="0.7"/>
<path d="M344.261 1870.08C344.25 1869.53 343.793 1869.09 343.241 1869.1C342.689 1869.11 342.25 1869.57 342.261 1870.12C342.272 1870.67 342.729 1871.11 343.281 1871.1C343.833 1871.09 344.272 1870.63 344.261 1870.08Z" fill="#D9D9D9" fill-opacity="0.5"/>
<path d="M320.204 2168.62C320.193 2168.07 319.737 2167.63 319.185 2167.64C318.632 2167.65 318.194 2168.11 318.205 2168.66C318.216 2169.21 318.672 2169.65 319.224 2169.64C319.777 2169.63 320.215 2169.17 320.204 2168.62Z" fill="#D9D9D9"/>
<path d="M383.48 1529.23C383.469 1528.68 383.012 1528.24 382.46 1528.25C381.908 1528.26 381.469 1528.72 381.48 1529.27C381.491 1529.82 381.948 1530.26 382.5 1530.25C383.052 1530.24 383.491 1529.78 383.48 1529.23Z" fill="#D9D9D9"/>
<path d="M1524.84 2371.43C1524.53 2370.37 1523.42 2369.76 1522.36 2370.07C1521.3 2370.38 1520.69 2371.48 1521 2372.55C1521.31 2373.61 1522.41 2374.22 1523.48 2373.91C1524.54 2373.6 1525.15 2372.49 1524.84 2371.43Z" fill="#D9D9D9"/>
<path d="M1342.8 2238.81C1342.49 2237.75 1341.39 2237.14 1340.32 2237.45C1339.26 2237.76 1338.65 2238.86 1338.96 2239.93C1339.27 2240.99 1340.38 2241.6 1341.44 2241.29C1342.5 2240.98 1343.11 2239.88 1342.8 2238.81Z" fill="#D9D9D9" fill-opacity="0.7"/>
<path d="M1239.44 2140.68C1239.29 2140.15 1238.73 2139.85 1238.2 2140C1237.67 2140.15 1237.37 2140.71 1237.52 2141.24C1237.67 2141.77 1238.23 2142.07 1238.76 2141.92C1239.29 2141.77 1239.59 2141.21 1239.44 2140.68Z" fill="#D9D9D9" fill-opacity="0.5"/>
<path d="M1293.47 2435.27C1293.32 2434.74 1292.76 2434.44 1292.23 2434.59C1291.7 2434.74 1291.4 2435.3 1291.55 2435.83C1291.7 2436.36 1292.26 2436.66 1292.79 2436.51C1293.32 2436.36 1293.62 2435.8 1293.47 2435.27Z" fill="#D9D9D9"/>
<path d="M1189.11 1801.3C1188.96 1800.77 1188.4 1800.47 1187.87 1800.62C1187.34 1800.77 1187.04 1801.33 1187.19 1801.86C1187.34 1802.39 1187.9 1802.69 1188.43 1802.54C1188.96 1802.39 1189.26 1801.83 1189.11 1801.3Z" fill="#D9D9D9"/>
<path d="M427.061 1689.77C427.858 1690.54 429.124 1690.51 429.889 1689.72C430.654 1688.92 430.629 1687.65 429.833 1686.89C429.036 1686.12 427.77 1686.15 427.005 1686.94C426.24 1687.74 426.265 1689.01 427.061 1689.77Z" fill="#D9D9D9"/>
<path d="M651.026 1713.59C651.823 1714.36 653.089 1714.33 653.854 1713.54C654.619 1712.74 654.594 1711.47 653.798 1710.71C653.001 1709.94 651.735 1709.97 650.97 1710.76C650.204 1711.56 650.23 1712.83 651.026 1713.59Z" fill="#D9D9D9" fill-opacity="0.7"/>
<path d="M789.603 1746.9C790.001 1747.28 790.634 1747.27 791.017 1746.87C791.399 1746.47 791.387 1745.84 790.989 1745.46C790.59 1745.08 789.957 1745.09 789.575 1745.49C789.192 1745.89 789.205 1746.52 789.603 1746.9Z" fill="#D9D9D9" fill-opacity="0.5"/>
<path d="M595.515 1518.79C595.913 1519.17 596.546 1519.16 596.929 1518.76C597.312 1518.36 597.299 1517.73 596.901 1517.35C596.503 1516.97 595.869 1516.98 595.487 1517.38C595.104 1517.78 595.117 1518.41 595.515 1518.79Z" fill="#D9D9D9"/>
<path d="M1002.89 2015.65C1003.28 2016.03 1003.92 2016.02 1004.3 2015.62C1004.68 2015.22 1004.67 2014.59 1004.27 2014.21C1003.87 2013.83 1003.24 2013.84 1002.86 2014.24C1002.48 2014.64 1002.49 2015.27 1002.89 2015.65Z" fill="#D9D9D9"/>
<path d="M522.334 2565.49C521.273 2565.8 520.662 2566.9 520.969 2567.97C521.276 2569.03 522.385 2569.64 523.446 2569.33C524.507 2569.02 525.118 2567.92 524.811 2566.85C524.504 2565.79 523.395 2565.18 522.334 2565.49Z" fill="#D9D9D9"/>
<path d="M389.717 2747.53C388.656 2747.84 388.045 2748.95 388.352 2750.01C388.659 2751.07 389.768 2751.68 390.829 2751.37C391.89 2751.06 392.501 2749.96 392.194 2748.89C391.887 2747.83 390.778 2747.22 389.717 2747.53Z" fill="#D9D9D9" fill-opacity="0.7"/>
<path d="M291.583 2850.89C291.053 2851.04 290.747 2851.6 290.9 2852.13C291.054 2852.66 291.609 2852.96 292.139 2852.81C292.67 2852.66 292.975 2852.1 292.822 2851.57C292.668 2851.04 292.114 2850.74 291.583 2850.89Z" fill="#D9D9D9" fill-opacity="0.5"/>
<path d="M586.175 2796.86C585.644 2797.01 585.339 2797.57 585.492 2798.1C585.646 2798.63 586.2 2798.93 586.731 2798.78C587.261 2798.63 587.567 2798.07 587.413 2797.54C587.26 2797.01 586.705 2796.71 586.175 2796.86Z" fill="#D9D9D9"/>
<path d="M166.553 3087.44C166.936 3087.04 166.923 3086.41 166.525 3086.03C166.127 3085.65 165.494 3085.66 165.111 3086.06C164.728 3086.46 164.741 3087.09 165.139 3087.47C165.537 3087.85 166.17 3087.84 166.553 3087.44Z" fill="#D9D9D9"/>
<path d="M794.624 3920.45C793.657 3919.92 792.441 3920.27 791.907 3921.23C791.374 3922.2 791.726 3923.42 792.694 3923.95C793.661 3924.48 794.877 3924.13 795.411 3923.17C795.944 3922.2 795.592 3920.98 794.624 3920.45Z" fill="#D9D9D9"/>
<path d="M572.124 3955.4C571.157 3954.87 569.941 3955.22 569.407 3956.18C568.874 3957.15 569.226 3958.37 570.194 3958.9C571.161 3959.43 572.377 3959.08 572.911 3958.12C573.444 3957.15 573.092 3955.93 572.124 3955.4Z" fill="#D9D9D9" fill-opacity="0.7"/>
<path d="M429.648 3959.08C429.164 3958.82 428.556 3958.99 428.29 3959.48C428.023 3959.96 428.199 3960.57 428.683 3960.84C429.166 3961.1 429.775 3960.93 430.041 3960.44C430.308 3959.96 430.132 3959.35 429.648 3959.08Z" fill="#D9D9D9" fill-opacity="0.5"/>
<path d="M676.162 4129.19C675.678 4128.93 675.07 4129.1 674.803 4129.59C674.537 4130.07 674.713 4130.68 675.196 4130.95C675.68 4131.21 676.288 4131.04 676.555 4130.55C676.821 4130.07 676.645 4129.46 676.162 4129.19Z" fill="#D9D9D9"/>
<path d="M154.074 3754.7C153.59 3754.44 152.982 3754.61 152.715 3755.1C152.449 3755.58 152.625 3756.19 153.109 3756.46C153.592 3756.72 154.2 3756.55 154.467 3756.06C154.734 3755.58 154.558 3754.97 154.074 3754.7Z" fill="#D9D9D9"/>
<path d="M173.967 4037.95C174.52 4037.94 174.958 4037.48 174.947 4036.93C174.936 4036.38 174.48 4035.94 173.928 4035.95C173.375 4035.96 172.937 4036.42 172.948 4036.97C172.959 4037.52 173.415 4037.96 173.967 4037.95Z" fill="#D9D9D9"/>
<g filter="url(#filter0_f_104_173)">
<path d="M7163 24490C13508.2 24490 18652 19541.4 18652 13437C18652 7332.6 13508.2 2384 7163 2384C817.8 2384 -4326 7332.6 -4326 13437C-4326 19541.4 817.8 24490 7163 24490Z" fill="#358DE7"/>
</g>
<g filter="url(#filter1_f_104_173)">
<path d="M8719 25028C15064.2 25028 20208 20079.4 20208 13975C20208 7870.6 15064.2 2922 8719 2922C2373.8 2922 -2770 7870.6 -2770 13975C-2770 20079.4 2373.8 25028 8719 25028Z" fill="#FF7300"/>
</g>
<g filter="url(#filter2_f_104_173)">
<path d="M8071 24906C14416.2 24906 19560 19957.4 19560 13853C19560 7748.6 14416.2 2800 8071 2800C1725.8 2800 -3418 7748.6 -3418 13853C-3418 19957.4 1725.8 24906 8071 24906Z" fill="#D11206"/>
</g>
<g filter="url(#filter3_f_104_173)">
<path d="M8603 25168C14948.2 25168 20092 20219.4 20092 14115C20092 8010.6 14948.2 3062 8603 3062C2257.8 3062 -2886 8010.6 -2886 14115C-2886 20219.4 2257.8 25168 8603 25168Z" fill="black" fill-opacity="0.8"/>
</g>
<g style="mix-blend-mode:overlay" filter="url(#filter4_f_104_173)">
<path d="M5997 2510C6411 794 2639 2111 1412 3235L3675 4004C4311 4078 5665.8 3882.8 5997 2510Z" fill="#FF7300"/>
<path d="M5435 5498L6026 1046C6780 25.0002 7727 2880 8837 5439C9725 7486.2 6939 6331.33 5435 5498Z" fill="#CC5500"/>
<path d="M3482 3180H-1118V5340H3482V3180Z" fill="#EF4444"/>
</g>
<g style="mix-blend-mode:overlay">
<path d="M7680 0H0V4320H7680V0Z" fill="url(#pattern0_104_173)"/>
</g>
</g>
</g>
<defs>
<filter id="filter0_f_104_173" x="-6326" y="384" width="26978" height="26106" filterUnits="userSpaceOnUse" color-interpolation-filters="sRGB">
<feFlood flood-opacity="0" result="BackgroundImageFix"/>
<feBlend mode="normal" in="SourceGraphic" in2="BackgroundImageFix" result="shape"/>
<feGaussianBlur stdDeviation="1000" result="effect1_foregroundBlur_104_173"/>
</filter>
<filter id="filter1_f_104_173" x="-4770" y="922" width="26978" height="26106" filterUnits="userSpaceOnUse" color-interpolation-filters="sRGB">
<feFlood flood-opacity="0" result="BackgroundImageFix"/>
<feBlend mode="normal" in="SourceGraphic" in2="BackgroundImageFix" result="shape"/>
<feGaussianBlur stdDeviation="1000" result="effect1_foregroundBlur_104_173"/>
</filter>
<filter id="filter2_f_104_173" x="-5418" y="800" width="26978" height="26106" filterUnits="userSpaceOnUse" color-interpolation-filters="sRGB">
<feFlood flood-opacity="0" result="BackgroundImageFix"/>
<feBlend mode="normal" in="SourceGraphic" in2="BackgroundImageFix" result="shape"/>
<feGaussianBlur stdDeviation="1000" result="effect1_foregroundBlur_104_173"/>
</filter>
<filter id="filter3_f_104_173" x="-4886" y="1062" width="26978" height="26106" filterUnits="userSpaceOnUse" color-interpolation-filters="sRGB">
<feFlood flood-opacity="0" result="BackgroundImageFix"/>
<feBlend mode="normal" in="SourceGraphic" in2="BackgroundImageFix" result="shape"/>
<feGaussianBlur stdDeviation="1000" result="effect1_foregroundBlur_104_173"/>
</filter>
<filter id="filter4_f_104_173" x="-3118" y="-1166.43" width="14126" height="9751.61" filterUnits="userSpaceOnUse" color-interpolation-filters="sRGB">
<feFlood flood-opacity="0" result="BackgroundImageFix"/>
<feBlend mode="normal" in="SourceGraphic" in2="BackgroundImageFix" result="shape"/>
<feGaussianBlur stdDeviation="1000" result="effect1_foregroundBlur_104_173"/>
</filter>
<pattern id="pattern0_104_173" patternContentUnits="objectBoundingBox" width="1" height="1">
<use xlink:href="#image0_104_173" transform="scale(0.000488281)"/>
</pattern>
<clipPath id="clip0_104_173">
<rect width="7680" height="4320" fill="white"/>
</clipPath>
<image id="image0_104_173" width="2048" height="2048" preserveAspectRatio="none" />
</defs>
</svg>

